<svg height="313" viewBox="-35.278 6.059999999999997 348.098 33.140788236905394" width="2500" xmlns="http://www.w3.org/2000/svg"><g fill="#212125"><path d="M-12.077 19.038a28 28 0 0 0-.342-2.742 18 18 0 0 0-.676-2.672c-.15-.438-.32-.874-.514-1.294a11 11 0 0 0-.65-1.216 10 10 0 0 0-.811-1.124 10 10 0 0 0-.961-1.002c-.68-.616-1.438-1.144-2.26-1.58s-1.68-.766-2.574-.994a11.1 11.1 0 0 0-2.758-.354 11.56 11.56 0 0 0-5.332 1.348c-.822.436-1.578.964-2.26 1.58q-.514.465-.963 1.002a10 10 0 0 0-.807 1.124 12 12 0 0 0-.652 1.216c-.194.42-.364.856-.512 1.294a18 18 0 0 0-.679 2.672c-.16.904-.271 1.82-.342 2.742s-.108 1.84-.088 2.758c.02.914.096 1.828.258 2.738a14.3 14.3 0 0 0 .75 2.67c.66 1.712 1.596 3.296 2.62 4.836a78 78 0 0 0 1.578 2.277c.535.75 1.084 1.492 1.703 2.173q.463.508.99.96c.352.3.73.578 1.123.824.391.246.807.466 1.244.621q.328.118.668.183a3.97 3.97 0 0 0 2.064-.183 6.3 6.3 0 0 0 1.246-.621 9.5 9.5 0 0 0 1.123-.824q.529-.452.988-.96c.621-.681 1.168-1.423 1.705-2.173a83 83 0 0 0 1.58-2.277c1.021-1.54 1.955-3.124 2.617-4.836q.25-.642.441-1.313c.125-.447.227-.904.309-1.357.162-.91.238-1.824.258-2.738a26 26 0 0 0-.084-2.758m-21.522 3.702s5.104 1.159 8.369 8.008c.001 0-8.802-.149-8.369-8.008m11.584 8.008c3.264-6.849 8.367-8.008 8.367-8.008.436 7.859-8.367 8.008-8.367 8.008m323.46-7.75l2.422-2.15h-7.416v2.15z"/><path d="M305.482 28.905l-10.957-.014V15.349h10.549v-2.231h-13.041V31.09h13.703v-2.185zM41.569 13.119h-2.49v17.972h11.943l2.416-2.201H41.569zm32.29 0h2.49v17.972h-2.49zm72.361 14.48l-11.892-14.441-.035-.04h-2.51v17.973h2.386v-14.53l11.895 14.49.033.04h2.483V13.118h-2.36zm42.944.266l-5.368-14.674-.025-.072h-2.266l-5.394 14.72-4.219-14.641-.021-.079h-2.604l5.211 17.894.023.078h2.77l5.354-14.442 5.33 14.442h2.765l5.246-17.832.043-.14h-2.605zm80.525-6.149c.822-.75 1.236-1.769 1.236-3.03v-.626c0-.762-.148-1.46-.441-2.07a4.36 4.36 0 0 0-1.258-1.565c-.539-.426-1.197-.752-1.955-.975-.758-.22-1.604-.33-2.51-.33h-9.248v17.973h2.49V15.348h6.6c1.355 0 2.404.348 3.113 1.036.459.439.721 1.114.721 1.848v.584c0 .448-.104.846-.311 1.185a2.7 2.7 0 0 1-.816.854 3.9 3.9 0 0 1-1.168.521 6 6 0 0 1-1.355.205h-5.842v2.122h5.334l4.33 7.336.031.055h2.762l-4.695-7.918c1.201-.258 2.203-.748 2.982-1.46M8.008 12.911L.068 30.938 0 31.091h2.77l2.328-5.288.448-1.063h7.66l2.772 6.352h2.746l-8.122-18.18H8.008zm4.26 9.678H6.45l2.856-6.786zm212.107-9.678l-7.939 18.027-.068.152h2.77l2.328-5.288.449-1.063h7.66l2.742 6.285.029.066h2.746l-8.121-18.18zm4.259 9.678h-5.816l2.855-6.786zm-122.063.409l2.422-2.15h-7.416v2.15z"/><path d="M99.649 28.89V15.348h10.548v-2.229H97.159v17.972h13.702v-2.185h-.256zm207.716-15.426v-.344h2.156v.344h-.893v1.886h-.406v-1.886zm3.133-.345l.943 1.329.957-1.329h.422v2.231h-.401v-1.683l-.857 1.204h-.244l-.842-1.2v1.679h-.406v-2.231z"/></g></svg>