<svg version="1.1" id="Layer_1" xmlns:x="ns_extend;" xmlns:i="ns_ai;" xmlns:graph="ns_graphs;" xmlns="http://www.w3.org/2000/svg" xmlns:xlink="http://www.w3.org/1999/xlink" x="0px" y="0px" viewBox="0 0 114.6 62" style="enable-background:new 0 0 114.6 62;" xml:space="preserve">
 <style type="text/css">
  .st0{fill-rule:evenodd;clip-rule:evenodd;}
	.st1{fill:#D60D0E;}
 </style>
 <metadata>
  <sfw xmlns="ns_sfw;">
   <slices>
   </slices>
   <sliceSourceBounds bottomLeftOrigin="true" height="62" width="114.6" x="0" y="0">
   </sliceSourceBounds>
  </sfw>
 </metadata>
 <g id="图层_2">
  <g id="图层_1-2">
   <path class="st0" d="M48.9,62l13.5-26.3H68L66.9,62h-5.6l0.2-3.5h-5.3L54.5,62H48.9z M58.5,53h3.3l1-9.3L58.5,53z">
   </path>
   <path class="st0" d="M0,62l13.5-26.3h5.6L18,62h-5.7l0.3-3.5H7.3L5.6,62H0z M9.6,53h3.3l1-9.3L9.6,53z">
   </path>
   <polygon class="st0" points="25.9,35.7 30.9,35.7 33,49.8 36.9,35.7 42.6,35.7 35.3,62 29.7,62 27.8,48.9 24.1,62 18.5,62 		">
   </polygon>
   <polygon class="st0" points="43.9,35.7 59.8,35.7 58.2,41.3 53.2,41.3 47.4,62 41.9,62 47.6,41.3 42.3,41.3 		">
   </polygon>
   <path class="st1" d="M114.6,46.5c-11.7-16.5-28.1-29-47.1-35.9c11.1,0.4,22.2,2,33,4.8l-7.4-6.3C77.2,3.1,60.3,0,43.2,0
			C32.9,0,22.7,1.1,12.6,3.4L0,12.1c1.6,0,4-0.1,5.6-0.1c38.7,0,75.1,18.6,97.7,50L114.6,46.5z">
   </path>
  </g>
 </g>
</svg>