<?xml version="1.0" encoding="UTF-8" standalone="no"?>
<!-- Created with Inkscape (http://www.inkscape.org/) -->

<svg
   width="1866.8755mm"
   height="405.4437mm"
   viewBox="0 0 1866.8755 405.4437"
   version="1.1"
   id="svg1"
   xml:space="preserve"
   inkscape:version="1.3.2 (091e20e, 2023-11-25, custom)"
   sodipodi:docname="Doraemon II.svg"
   xmlns:inkscape="http://www.inkscape.org/namespaces/inkscape"
   xmlns:sodipodi="http://sodipodi.sourceforge.net/DTD/sodipodi-0.dtd"
   xmlns="http://www.w3.org/2000/svg"
   xmlns:svg="http://www.w3.org/2000/svg"><sodipodi:namedview
     id="namedview1"
     pagecolor="#ffffff"
     bordercolor="#000000"
     borderopacity="0.25"
     inkscape:showpageshadow="2"
     inkscape:pageopacity="0.0"
     inkscape:pagecheckerboard="0"
     inkscape:deskcolor="#d1d1d1"
     inkscape:document-units="mm"
     inkscape:zoom="0.14645904"
     inkscape:cx="3625.5871"
     inkscape:cy="1440.6758"
     inkscape:window-width="1920"
     inkscape:window-height="1112"
     inkscape:window-x="-8"
     inkscape:window-y="-8"
     inkscape:window-maximized="1"
     inkscape:current-layer="layer1" /><defs
     id="defs1" /><g
     inkscape:label="Layer 1"
     inkscape:groupmode="layer"
     id="layer1"
     transform="translate(679.49298,332.3401)"><g
       id="path2-1" /><g
       id="g24"
       transform="matrix(4.6339808,0,0,4.6339808,-680.05852,-332.62869)"><path
         style="fill:#004fae;fill-opacity:1;stroke-width:4;stroke-linecap:round;stroke-linejoin:round;stroke-miterlimit:26.7"
         d="m 35.22679,0.06821289 c 2.975675,0.0553129 6.099135,0.48966594 8.845455,1.25005291 7.697721,2.1313163 14.345354,7.3605757 19.412252,14.1428062 1.135251,-0.762472 2.275323,-1.563534 3.400309,-2.144572 5.612839,-2.89892 11.633246,-4.3184751 18.101738,-4.3201499 6.881255,-0.00194 13.460258,1.8937849 19.255676,5.2343059 2.62952,-2.948302 6.01647,-5.1952842 9.92394,-6.2130575 3.13481,-0.8164992 6.33707,-0.8710687 9.63455,-0.125057 l 0.27337,-0.1286743 a 2.0002,2.0002 0 0 1 0.004,-0.00207 c 3.81467,-1.7820222 7.26452,-2.5825698 11.2696,-2.5745198 2.74665,0.00527 4.88301,0.3235515 7.08587,1.0841715 1.569,0.5417504 2.83065,1.2577892 4.07779,1.9885091 5.8438,-3.047934 12.91916,-4.1857417 20.18947,-3.4845418 8.11714,0.7828778 15.25529,3.5187583 20.76565,8.0036458 4.36837,-3.0157665 9.30363,-5.2911032 14.72882,-6.4549031 4.51577,-0.9686753 10.17482,-0.9739955 14.69316,-0.01757 5.09962,1.0794716 9.94063,3.2537191 14.09165,6.0880001 5.82875,-4.2758913 12.95399,-6.8378251 20.24217,-6.8378251 5.65803,0 10.98703,1.4077568 16.28738,4.1795898 l 0.0682,0.03514 -0.59376,0.2284098 c 4.08883,-1.5672296 7.98155,-2.1504763 12.74806,-1.9900594 4.77784,0.1607957 8.56822,1.0170246 12.60543,2.9062829 2.86979,1.342901 5.45836,3.211138 7.87704,5.300451 1.28068,-1.088704 2.57239,-2.050576 4.01578,-2.739884 4.6053,-2.19932 9.65082,-2.881492 14.53141,-1.783354 0.32823,0.07385 1.81613,0.248803 4.09949,0.226343 6.38239,-0.06281 11.6811,1.105949 17.10748,3.842143 2.16585,1.092079 3.88422,2.228778 5.60741,3.556372 5.6692,-7.231534 14.21104,-11.2283712 22.93555,-11.4235923 5.41199,-0.1210808 10.94387,1.2018958 15.86312,4.1423823 6.91324,4.132404 11.90463,10.305667 14.74225,17.613396 2.37748,6.122769 3.08086,12.208606 3.66593,25.515755 0.17982,4.089923 0.32444,6.913416 0.0625,10.042798 -0.32828,3.922405 -1.52626,7.376208 -3.20135,10.234517 -5.72254,9.764812 -17.94931,12.332602 -27.24175,7.589718 -0.71412,0.59043 -1.36988,1.201346 -2.3673,1.714624 -5.35582,2.756113 -12.68175,3.827854 -19.51767,0.349849 -3.3694,-1.714315 -5.70242,-4.22621 -7.50393,-6.939628 -6.67525,4.293794 -14.63425,6.550637 -22.74435,5.701461 -5.14659,-0.538881 -9.92887,-2.262295 -14.2906,-4.730461 -4.86202,5.798865 -12.55893,8.753778 -20.2091,7.150468 -3.60935,-0.756443 -6.92808,-2.476545 -9.76943,-4.779553 -6.85284,4.268532 -15.75363,4.53795 -23.35982,0.808736 -1.3799,-0.676562 -2.4951,-1.606275 -3.62096,-2.519743 -5.07521,3.165661 -11.30103,4.352752 -17.30851,2.986381 -1.57885,-0.359099 -3.03517,-0.986018 -4.45141,-1.644344 l 0.0176,-0.0098 c -0.007,0.0031 -0.0131,0.0047 -0.0191,0.0078 -0.26777,-0.124499 -0.58035,-0.179286 -0.84181,-0.310575 l 0.71469,0.363285 c -5.54103,2.633708 -10.93908,3.858747 -17.06459,3.847827 -7.43194,-0.01325 -14.51814,-2.191501 -20.66954,-6.007902 -2.75121,2.925346 -6.29402,5.074443 -10.26191,6.107121 -5.09053,1.324861 -10.50924,0.589705 -15.13499,-1.870687 -4.27436,1.028712 -9.16345,1.160716 -13.46481,0.08785 -4.47587,-1.116389 -8.48785,-3.260226 -11.98222,-5.970695 -3.79538,4.446212 -9.26054,7.291028 -15.36133,7.291028 -3.52298,0 -6.90405,-0.842927 -10.03505,-2.48822 -1.99125,-1.046366 -3.55425,-2.511074 -4.95525,-4.07262 -3.31026,2.456925 -6.71527,4.459082 -10.804511,5.818766 -3.776835,1.255802 -7.648515,1.800407 -12.074198,1.800407 -6.358647,0 -12.349619,-1.40829 -17.921904,-4.251937 -2.768837,-1.412984 -5.118103,-3.155033 -7.441406,-5.175911 -5.316885,5.278769 -12.173551,8.900377 -20.006014,10.154419 -3.6106,0.57809 -11.787059,1.20257 -15.660026,1.091923 -1.078631,-0.03081 -2.127524,-0.149662 -3.15433,-0.328145 C 13.058619,85.81029 6.761022,79.664835 4.2850098,71.638521 3.4083647,68.796672 3.1348419,65.499608 2.5760701,59.912105 2.0133962,54.285484 1.4081452,46.841688 0.79891764,38.005949 0.06886,27.417972 -0.26251802,22.482273 0.80253499,18.20509 2.5987341,10.991645 7.792229,5.0958266 14.785144,2.7538371 16.092623,2.315951 16.996031,2.2048302 18.24023,1.9885091 19.557434,1.7594734 21.137074,1.515081 22.806877,1.2753743 26.14677,0.7959092 29.776494,0.34249545 32.318441,0.1462443 33.259767,0.07357805 34.235432,0.04985598 35.22679,0.06821289 Z"
         id="path18" /><g
         id="g23"><g
           id="g21"><path
             style="fill:#ffffff;fill-opacity:1;stroke-width:10.5;stroke-linecap:round;stroke-linejoin:round;stroke-miterlimit:26.7"
             d="m 368.55683,9.8944865 c 5.05616,-0.113115 10.21159,1.1219455 14.79083,3.8591955 6.52697,3.901507 11.21403,9.693544 13.90406,16.621208 2.26536,5.834045 2.95047,11.615089 3.53364,24.879102 0.18003,4.094721 0.31457,6.820933 0.0661,9.789066 -0.30279,3.617619 -1.40288,6.776482 -2.93367,9.388574 -5.3998,9.214092 -17.24274,11.384664 -25.73435,6.298841 -0.93812,0.809204 -1.87346,1.627308 -3.06441,2.240173 -4.88649,2.514597 -11.52389,3.483434 -17.69504,0.343648 -7.24323,-3.685256 -9.98174,-10.857527 -10.5761,-17.072343 -0.23806,-0.573585 -0.19882,-1.000552 -0.25632,-1.275374 -0.22372,-1.069732 -0.19977,-1.57194 -0.22427,-2.767273 -10e-4,-0.06113 -0.004,-0.120761 -0.004,-0.181901 -10e-6,-0.0052 -10e-6,-0.01034 0,-0.0155 -0.0531,-8.11209 -3.86207,-24.785887 5.61723,-39.972754 l 0.002,-0.0036 c 0.18447,-0.294918 0.38002,-0.583205 0.58601,-0.863513 5.26464,-7.171881 13.56105,-11.078952 21.98832,-11.2675295 z"
             id="path15" /><g
             id="g20"><path
               style="fill:#004fae;fill-opacity:1;stroke-width:17.4;stroke-linecap:round;stroke-linejoin:round;stroke-miterlimit:26.7"
               d="m 368.67362,15.144295 h 5.2e-4 c 4.12574,-0.09232 8.29379,0.912049 11.98014,3.115572 5.56244,3.324954 9.37907,8.030398 11.70317,14.015682 1.98557,5.113499 2.60325,10.051121 3.18171,23.20892 0.18011,4.096413 0.29179,6.591694 0.0801,9.12089 -0.21169,2.529193 -1.25595,5.509485 -2.23035,7.172172 -4.45391,7.600026 -15.07708,8.463608 -21.05246,2.48822 -0.19808,-0.198083 -0.36605,-0.573257 -0.56276,-0.81442 -1.32994,1.987068 -3.05525,3.821513 -5.05654,4.851383 -3.61026,1.85784 -8.57479,2.539968 -12.91394,0.332279 -5.81783,-2.960039 -7.84553,-9.222996 -7.95094,-14.570686 -0.0532,0.01567 -0.19287,0.186206 -0.23719,-1.97249 a 8.7008698,8.7008698 0 0 1 -0.002,-0.12299 c -0.061,-9.326595 -3.39347,-23.999818 4.81986,-37.158455 a 8.7008698,8.7008698 0 0 1 0.36742,-0.541052 c 4.2358,-5.77031 10.99657,-8.971164 17.87281,-9.125025 z"
               id="path11" /><path
               style="fill:#95dbff;fill-opacity:1"
               d="m 357.74877,70.879619 c -2.08143,-1.059005 -3.2071,-3.607342 -3.2071,-7.260353 0,-0.938723 -0.22521,-1.581515 -0.22778,-1.706769 -0.0687,-10.51057 -2.29734,-23.208064 3.49976,-32.495636 4.48799,-6.113868 11.84821,-7.59149 18.37646,-3.689219 3.2403,1.936895 6.62778,6.013234 8.05809,9.696734 1.61239,4.152417 2.02592,7.404942 2.59911,20.442777 0.35456,8.064921 0.23759,9.462417 -0.96355,11.512009 -1.50689,2.571317 -5.19305,2.937651 -7.39571,0.734993 -1.36347,-1.363475 -1.67245,-2.92914 -1.98099,-10.038116 -0.71412,-16.454214 -0.89636,-17.503575 -3.47872,-20.03041 -1.52283,-1.490086 -1.60746,-1.53313 -3.01452,-1.53313 -1.28781,0 -1.56297,0.104137 -2.49134,0.942862 -2.16436,1.955369 -2.77415,4.348141 -2.41301,9.468511 0.13496,1.913588 0.38942,6.813001 0.56546,10.887584 0.28743,6.652698 0.27642,7.558457 -0.10792,8.880164 -0.58549,2.013434 -1.41275,3.146149 -2.83065,3.875804 -1.79758,0.925037 -3.56556,1.035703 -4.98759,0.312195 z"
               id="path2"
               sodipodi:nodetypes="ssssssssssssssssss" /></g></g><g
           id="g22"><path
             style="fill:#ffffff;fill-opacity:1;stroke-width:8.7;stroke-linecap:round;stroke-linejoin:round;stroke-miterlimit:26.7"
             d="m 35.189583,2.0675741 c 2.802833,0.052073 5.794086,0.4712485 8.349361,1.1787394 7.734342,2.1414469 14.540101,7.6131505 19.502169,14.8590415 0.02687,-0.01901 0.04519,-0.03132 0.07235,-0.05064 1.565191,-1.113499 3.205709,-2.194908 4.68912,-2.96106 5.334533,-2.755174 11.004381,-4.095824 17.183964,-4.097424 7.089051,-0.0017 13.87101,2.035386 19.693373,5.743835 2.48061,-3.286418 5.97137,-5.740436 9.99008,-6.7871821 3.26752,-0.8510791 6.40604,-0.9708928 9.78132,0.031523 l -0.24805,-0.072347 0.72037,-0.3379639 c 3.61712,-1.6897276 6.66733,-2.3939576 10.42004,-2.3864176 2.6065,0.00525 4.43281,0.2824883 6.43733,0.9746175 1.7703,0.6112515 3.21902,1.3677876 4.60592,2.2479241 l -0.72864,0.45682 c 0.25329,-0.158813 0.55611,-0.250708 0.81649,-0.400492 0.49411,0.317332 1.00739,0.591036 1.48828,0.963248 l -1.3379,-1.037146 c 5.55049,-3.1421964 12.59985,-4.3295606 19.88251,-3.6271681 8.30112,0.8006201 15.48333,3.6382741 20.73671,8.3261061 l -1.59008,1.344104 c 0.53594,-0.453058 1.13312,-0.83101 1.6955,-1.25212 0.5876,0.529981 1.26461,0.973223 1.79886,1.552877 l -1.58233,-1.713074 c 4.37594,-3.225785 9.46936,-5.5477688 15.04714,-6.7442904 4.16167,-0.8927409 9.69524,-0.8973324 13.86117,-0.015503 5.24541,1.1103257 10.3207,3.3585854 14.42186,6.3768714 l -1.37304,1.246436 c 0.47081,-0.426251 1.03202,-0.742289 1.5291,-1.138949 0.23253,0.173309 0.49727,0.319702 0.72296,0.498161 L 231.09959,14.7128 c 5.66185,-4.500499 12.86818,-7.156152 20.12332,-7.156152 5.33219,0 10.29573,1.3031884 15.35927,3.95118 l 0.8692,0.455269 0.24391,-0.09405 c 3.85965,-1.479968 7.39026,-2.0134079 11.96878,-1.859318 4.58632,0.154351 8.00227,0.92929 11.82615,2.718697 3.17827,1.487285 6.09667,3.597248 8.74985,6.088001 1.65251,-1.570251 3.15464,-2.72464 4.8519,-3.535185 4.24182,-2.025721 8.80677,-2.631874 13.2302,-1.636593 0.67967,0.152929 2.18528,0.298786 4.5589,0.275436 6.13773,-0.06039 11.01397,1.018153 16.18712,3.626652 2.67225,1.34744 4.51744,2.561714 6.67195,4.400765 l 0.18758,0.161747 h 0.54312 c 1.97148,0 3.98959,0.40744 5.46478,1.142566 5.28676,2.634499 6.74628,9.817957 3.24425,14.504024 l 0.7028,-0.939478 c 1.25022,3.686858 1.75212,6.747666 1.76992,10.921814 0.0241,5.66782 -1.07787,10.5632 -3.514,15.453321 -6.2226,12.490896 -19.90375,20.120053 -33.66203,18.67948 -5.40978,-0.566438 -10.46287,-2.357916 -14.93552,-5.156275 -4.26216,6.076521 -11.9058,9.170273 -19.36109,7.607805 -3.74775,-0.785447 -7.27005,-2.565549 -10.02781,-5.128886 -6.30806,4.593625 -15.16136,4.980457 -22.63066,1.318266 -1.6665,-0.817085 -3.11114,-1.861893 -4.40232,-3.064413 -4.78832,3.442203 -11.03241,4.727913 -16.96485,3.378605 -1.68027,-0.382169 -3.3078,-1.024194 -4.8457,-1.796789 l -0.14263,-0.07235 -0.75396,0.361218 c -5.35957,2.570504 -10.42334,3.721435 -16.34164,3.710885 -7.62178,-0.01359 -14.90001,-2.333397 -21.04523,-6.527251 -2.57519,3.261723 -6.25528,5.614392 -10.39419,6.691582 -4.97422,1.294584 -10.36788,0.493509 -14.74432,-2.199349 l 0.32039,0.195337 -0.30489,0.07803 c -4.023,1.029861 -8.85107,1.142458 -12.88242,0.136942 -4.84128,-1.207537 -9.24576,-3.522433 -12.78733,-6.656441 -3.40705,4.856379 -8.9158,7.91838 -15.04094,7.91838 -3.20836,0 -6.24573,-0.757106 -9.10539,-2.25981 -2.25079,-1.182755 -4.04116,-2.946155 -5.58416,-4.924248 -3.65581,2.929983 -7.25432,5.053026 -11.736227,6.54327 -3.556483,1.182535 -7.179043,1.699121 -11.443229,1.699121 -6.066167,0 -11.71803,-1.33074 -17.013949,-4.033345 -3.154428,-1.609764 -5.717456,-3.520527 -8.419641,-6.052344 -5.16021,5.715701 -12.174793,9.544353 -20.251994,10.837581 -3.336612,0.53422 -11.742735,1.167871 -15.287439,1.066602 -0.969337,-0.02769 -1.921248,-0.13445 -2.869075,-0.299207 C 14.194592,83.977439 8.4768646,78.444296 6.1954875,71.048893 5.4188636,68.531359 5.1261141,65.30713 4.5666463,59.712634 4.0071787,54.118139 3.4013779,46.690729 2.7931112,37.869006 2.0635911,27.288748 1.7953103,22.497669 2.7440186,18.687748 4.3841127,12.101291 9.1025251,6.7660683 15.419731,4.6503621 16.568615,4.2655873 17.294656,4.182742 18.581812,3.9589315 19.868967,3.7351209 21.433613,3.4934149 23.090063,3.2556152 26.402962,2.7800159 30.022701,2.329572 32.472437,2.1404378 c 0.869213,-0.067109 1.782869,-0.090221 2.717146,-0.072864 z"
             id="path13" /><g
             id="g19"><path
               style="fill:#004fae;fill-opacity:1"
               d="M 22.225,80.957878 C 16.571983,79.975236 12.242814,75.894635 10.352561,69.767116 9.5446972,67.148313 8.3451582,55.153314 7.1328277,37.570832 6.4088372,27.070765 6.3624447,22.155838 6.964502,19.738035 8.272183,14.486516 11.934173,10.405254 16.801042,8.775282 18.352448,8.2556976 28.334367,6.8226951 32.808334,6.477278 c 2.67453,-0.2064897 6.878159,0.2155419 9.569733,0.9607723 7.316899,2.0258682 14.184618,7.6844227 18.695709,15.4040497 0.92774,1.5876 1.071614,1.724135 1.399409,1.328022 0.861369,-1.040896 5.129947,-4.077622 7.326096,-5.211889 4.756275,-2.456519 9.607989,-3.610153 15.188735,-3.611555 6.886094,-0.0017 13.419926,2.056943 18.816194,5.928589 1.1337,0.813394 2.10659,1.478899 2.16198,1.478899 0.0554,0 0.48359,-0.718376 0.95156,-1.59639 1.72547,-3.237308 5.31367,-6.07362 8.84845,-6.994315 1.98328,-0.516578 5.72078,-0.520913 7.44581,-0.0086 l 1.33513,0.396492 2.21862,-1.036419 c 3.33416,-1.557543 5.18543,-1.984918 8.56862,-1.978117 2.48133,0.005 3.22248,0.113601 5.02708,0.736701 2.21939,0.766316 3.32869,1.349277 4.93852,2.595286 l 0.96977,0.750601 1.69996,-1.065872 c 4.53968,-2.84637 11.22887,-4.122991 18.12065,-3.458297 8.49994,0.819796 15.48078,3.839245 19.85918,8.589763 l 1.13808,1.234802 1.37546,-1.162741 c 4.1668,-3.522383 9.3157,-5.992063 15.06284,-7.224914 2.98755,-0.640875 9.04957,-0.647255 12.04743,-0.01268 4.94407,1.046541 9.92848,3.312795 13.50328,6.139525 l 2.06289,1.631205 1.30263,-1.179354 c 4.96077,-4.491272 12.03334,-7.204556 18.77973,-7.204556 4.67785,0 8.7529,1.05552 13.34367,3.456279 l 2.6105,1.365168 2.07708,-0.796446 c 3.45886,-1.326283 6.01175,-1.717915 10.26524,-1.574764 4.27119,0.143746 6.66014,0.689079 10.12827,2.312012 3.04772,1.426193 5.91524,3.467687 8.45518,6.019552 l 2.17264,2.182843 2.32892,-2.346479 c 1.84822,-1.862154 2.74863,-2.546916 4.36235,-3.317567 3.53557,-1.688444 6.87586,-2.111822 10.40198,-1.318438 1.26568,0.284781 3.02489,0.405185 5.55625,0.380282 5.6878,-0.05596 9.48025,0.78935 14.18523,3.161776 2.50521,1.263213 3.81547,2.126595 5.80654,3.826137 l 1.40786,1.201727 h 2.14667 c 1.78075,0 2.3817,0.117115 3.52538,0.687037 3.026,1.507916 3.80692,5.187233 1.6995,8.00717 l -0.66438,0.888999 0.69496,2.021418 c 1.19708,3.48191 1.55955,5.710825 1.5765,9.694334 0.0219,5.15337 -0.8755,9.114585 -3.05708,13.493749 -5.38382,10.807163 -17.48441,17.533002 -29.31528,16.294239 -5.73645,-0.600641 -10.96096,-2.643309 -15.36756,-6.008377 l -1.48667,-1.135282 -0.98763,1.99833 c -2.86067,5.788175 -9.59431,9.011202 -16.01508,7.665547 -3.79976,-0.796348 -7.94566,-3.431255 -9.94783,-6.322302 l -0.51042,-0.737011 -1.4978,1.450736 c -4.70874,4.560774 -12.93045,5.458621 -19.6803,2.149175 -2.21712,-1.087053 -4.10532,-2.677623 -5.00879,-4.219284 l -0.65345,-1.11502 -1.52518,1.474641 c -3.57859,3.45999 -9.82447,5.043945 -15.13054,3.837104 -0.99196,-0.225617 -2.72725,-0.874245 -3.8562,-1.441395 l -2.05263,-1.031183 -2.67833,1.28455 c -4.90757,2.353719 -9.04118,3.292744 -14.45228,3.283098 -7.32351,-0.01306 -14.26975,-2.311575 -19.925,-6.593207 -1.28162,-0.97032 -2.3647,-1.721406 -2.40686,-1.669081 -0.0422,0.05233 -0.42232,0.748408 -0.84479,1.546848 -1.66502,3.146723 -5.48595,6.010491 -9.3671,7.020596 -3.51098,0.913764 -8.28566,0.201884 -11.36845,-1.694977 l -1.25202,-0.770378 -2.09029,0.535098 c -2.76651,0.708208 -8.1708,0.773274 -10.75203,0.129452 -5.86422,-1.462683 -11.02673,-4.789369 -14.14864,-9.117282 l -0.80997,-1.122864 -0.45044,1.387448 c -1.98488,6.113753 -7.20934,9.986405 -13.47232,9.986405 -2.65004,0 -4.7024,-0.510199 -7.08156,-1.76041 -2.19231,-1.152027 -4.64276,-3.662724 -5.78682,-5.929097 l -0.79745,-1.579726 -2.27904,1.992476 c -3.92841,3.434452 -7.13275,5.288496 -11.852172,6.857712 -3.108234,1.033494 -6.134269,1.477379 -10.071522,1.477379 -5.453955,0 -10.318472,-1.151384 -15.036186,-3.558919 -3.205805,-1.63598 -5.425086,-3.266868 -8.291083,-6.092883 l -2.430615,-2.396708 -1.345664,1.764502 c -4.528966,5.938606 -11.247734,9.805013 -19.27063,11.089547 -1.837611,0.294217 -12.797929,1.062439 -14.474559,1.014539 -0.582084,-0.01663 -1.594115,-0.123368 -2.248959,-0.237197 z"
               id="path3" /><g
               id="g11"><path
                 id="path5"
                 style="fill:#ffef00;fill-opacity:1"
                 d="m 321.20417,71.813644 c -0.3638,-0.06475 -1.37583,-0.246182 -2.24896,-0.403177 -3.70297,-0.665826 -7.24064,-2.342597 -10.5185,-4.98552 -3.37183,-2.718694 -3.69535,-3.627672 -2.28532,-6.420925 3.52069,-6.97446 9.1956,-13.636791 14.82045,-17.399191 5.55968,-3.718808 12.86949,-6.436603 20.20837,-7.513492 1.44186,-0.211574 2.5038,-0.254912 2.6919,-0.109856 0.17086,0.131759 0.79344,1.214748 1.38352,2.406643 3.55246,7.175554 3.09438,16.493225 -1.13392,23.064938 l -1.14693,1.782576 -1.22643,-2.249921 c -0.67454,-1.237457 -1.75394,-2.951656 -2.39867,-3.809331 -1.15727,-1.539514 -1.17033,-1.5803 -1.02374,-3.196943 0.19228,-2.12051 -0.26332,-3.714657 -1.46178,-5.114789 -1.98236,-2.315945 -5.25739,-3.00557 -7.93554,-1.670993 -4.78736,2.385643 -4.99751,8.959769 -0.3733,11.67804 1.05904,0.622537 1.56699,0.738992 3.35762,0.769787 2.05156,0.03528 2.13052,0.06085 2.85965,0.926042 0.80854,0.959413 3.6295,6.387631 3.6295,6.984043 0,0.912534 -5.44458,3.754592 -8.86354,4.626747 -2.02552,0.516697 -6.90924,0.888978 -8.33438,0.635322 z M 306.47115,44.082598 c 0.008,-4.959508 -0.43428,-7.691045 -1.78057,-11.004276 -0.37638,-0.926277 -0.68433,-1.914836 -0.68433,-2.1968 0,-0.945628 1.66638,-3.651321 2.9714,-4.824644 1.976,-1.776592 3.88342,-2.576943 6.48164,-2.719689 1.36918,-0.07522 2.64551,0.01143 3.43959,0.233528 0.80463,0.225048 2.89402,0.362478 5.7605,0.378898 4.84694,0.02776 6.59605,0.315975 9.8831,1.628492 2.49348,0.995648 6.69286,3.575439 6.36011,3.907188 -0.057,0.05682 -1.51847,0.420563 -3.24772,0.808312 -4.49384,1.007653 -7.92675,2.247946 -12.46632,4.50403 -6.05231,3.007881 -10.6687,6.594711 -14.75317,11.462876 l -1.97125,2.349477 z" /><path
                 id="path1"
                 style="fill:#95dbff;fill-opacity:1"
                 d="M 23.680209,71.986535 C 21.629589,71.480361 20.476078,70.452619 19.454781,68.221812 18.870473,66.945516 18.677212,65.806768 18.130266,60.417383 16.891772,48.21378 15.610417,30.316561 15.610417,25.221608 c 0,-3.646644 0.557027,-5.452943 2.067587,-6.704669 1.321948,-1.095433 2.689896,-1.432786 9.172679,-2.2621 10.235121,-1.309335 14.506401,-0.60683 19.460906,3.200769 10.789553,8.291907 14.445744,25.342142 8.226235,38.362122 -1.608684,3.367634 -2.503056,4.684815 -4.906416,7.225892 -2.207623,2.334123 -4.213959,3.703532 -6.995275,4.77457 -2.916078,1.122933 -5.38161,1.556716 -10.621549,1.868743 -2.546615,0.151645 -5.285052,0.325176 -6.085417,0.385624 -0.800365,0.06045 -1.812396,0.02174 -2.248958,-0.08602 z M 37.041667,52.6261 c 1.678921,-0.49772 3.705971,-2.571651 4.508165,-4.612427 0.868273,-2.20888 0.886702,-6.196772 0.03857,-8.347169 -1.616538,-4.098673 -4.966293,-5.740739 -10.50164,-5.147954 l -1.774504,0.190033 0.171738,1.761854 c 0.182603,1.873335 1.957712,15.413889 2.140056,16.324386 0.101442,0.506526 0.234362,0.528721 2.167528,0.361929 1.132702,-0.09773 2.595239,-0.336522 3.250083,-0.530652 z M 288.52813,71.993822 c -1.47554,-0.382909 -3.53545,-1.60204 -4.17464,-2.470697 -1.6146,-2.19424 -1.66364,-3.194364 -0.74857,-15.266821 0.7258,-9.575539 0.68356,-13.639565 -0.15844,-15.242156 -0.79702,-1.516994 -2.68802,-3.180204 -3.86728,-3.401435 -1.79641,-0.337009 -4.11735,1.146555 -5.24176,3.350579 -0.91081,1.785337 -1.26447,4.386767 -1.95089,14.350247 -0.37094,5.384271 -0.78942,10.357693 -0.92996,11.052048 -0.85364,4.217578 -3.61146,6.22444 -8.18942,5.959426 -1.70448,-0.09867 -2.42498,-0.288474 -3.89341,-1.025651 -1.57075,-0.788541 -1.88602,-1.074267 -2.45785,-2.22749 -0.93532,-1.886288 -0.94893,-3.371793 -0.13336,-14.552082 0.83979,-11.512164 0.79668,-13.526568 -0.33247,-15.536827 -0.43142,-0.768078 -1.2875,-1.783459 -1.90239,-2.256402 -0.96432,-0.741702 -1.32791,-0.859896 -2.64522,-0.859896 -2.07858,0 -3.34505,0.90568 -4.32737,3.094586 -0.92171,2.053838 -1.11375,3.583379 -1.92018,15.293955 -0.39217,5.694889 -0.83621,10.363235 -1.06161,11.161068 -0.87208,3.086944 -3.46072,5.060923 -6.96565,5.3117 -1.06123,0.07593 -2.20684,-0.0019 -2.77137,-0.188161 l -0.96233,-0.317597 0.81954,-1.191163 c 3.37216,-4.901257 3.30934,-11.468012 -0.15918,-16.64048 l -1.13847,-1.697763 1.62697,-1.660639 c 2.75845,-2.815524 3.94202,-5.864745 3.93335,-10.133415 -0.006,-2.842234 -0.5697,-5.32872 -1.82776,-8.059174 l -0.91431,-1.984375 1.54023,-1.409762 c 4.71232,-4.313164 11.16103,-6.169248 17.14197,-4.933849 3.53494,0.730161 7.49864,2.730228 10.30571,5.200214 l 1.03554,0.911194 2.09125,-1.243834 c 5.81426,-3.458214 12.36332,-3.841918 18.11338,-1.061249 4.246,2.053314 7.5068,5.318473 9.70517,9.718137 2.09054,4.183868 2.4415,6.990349 1.89003,15.113823 -1.21815,17.944003 -1.39935,19.067748 -3.39618,21.061637 -1.46643,1.464271 -4.24596,2.272019 -6.13307,1.782304 z M 80.433335,70.94098 c -3.020874,-0.664808 -5.912857,-1.823398 -8.396614,-3.363861 -2.242364,-1.390748 -6.08362,-5.057815 -7.391235,-7.056065 l -0.823964,-1.259153 0.87211,-2.709597 c 2.142145,-6.65552 2.484722,-13.817412 1.017972,-21.281619 L 65.28561,33.10283 66.575618,31.587189 c 2.937037,-3.45075 7.546745,-6.284284 12.270217,-7.542359 1.867903,-0.497508 2.921407,-0.598071 6.217708,-0.593517 3.552462,0.0049 4.218523,0.08111 6.35,0.726464 10.277917,3.111881 17.038937,11.077366 18.105167,21.330554 0.45143,4.341092 -0.31446,8.403362 -2.36949,12.567708 -2.96348,6.00523 -8.398492,10.454074 -15.20651,12.447329 -3.265453,0.956061 -8.242138,1.136638 -11.509375,0.417612 z m 8.769559,-16.529378 c 3.747558,-1.828326 5.381076,-5.72786 4.062448,-9.697878 -0.701622,-2.112384 -2.945941,-4.300395 -5.033574,-4.907287 -4.044488,-1.175764 -8.05871,0.623776 -9.738167,4.365536 -0.760461,1.694275 -0.756479,4.483827 0.0088,6.156954 0.760645,1.66302 2.687215,3.489707 4.386871,4.159434 1.723825,0.679251 4.841719,0.641344 6.313632,-0.07676 z M 171.6479,70.795419 c -1.43342,-0.511538 -2.68343,-1.550158 -3.63725,-3.022145 l -0.83379,-1.286767 -1.76603,0.867271 c -4.53555,2.227335 -8.32538,2.692539 -12.48166,1.532127 -7.29784,-2.037519 -12.32045,-9.463753 -11.80927,-17.460706 0.31686,-4.956899 1.84181,-8.410201 5.19436,-11.762817 3.57523,-3.575306 7.05249,-5.027398 12.03887,-5.027398 3.72878,0 5.49802,0.546218 11.02225,3.402892 0.37806,0.195502 0.51043,-1.593814 0.22104,-2.987829 -0.75835,-3.652945 -3.99369,-4.631796 -10.9636,-3.317035 -3.42994,0.647005 -5.37409,0.690955 -6.66705,0.15072 -0.71732,-0.299713 -0.90438,-0.504944 -0.7728,-0.847842 0.41351,-1.077591 0.45016,-4.506203 0.0673,-6.297349 -0.3857,-1.804514 -0.38124,-1.868046 0.17349,-2.473586 0.81239,-0.886789 2.81261,-1.84168 5.15879,-2.462771 2.6753,-0.708217 8.39514,-0.765378 11.7688,-0.117611 6.6167,1.270451 11.56818,4.42975 13.75088,8.773771 0.92354,1.838039 1.5086,4.901034 1.5086,7.898123 0,1.381661 -0.35007,5.702696 -0.77792,9.6023 -0.42785,3.899604 -1.03029,9.590502 -1.33875,12.646439 -0.6346,6.286955 -1.01934,8.151562 -1.98218,9.606522 -1.6544,2.499966 -5.01695,3.603304 -7.87409,2.583691 z m -6.88507,-12.814642 c 2.24198,-1.14377 3.75354,-4.082852 3.40755,-6.625649 -0.69065,-5.075803 -5.84892,-7.67457 -9.86843,-4.971778 -1.87541,1.261059 -2.83089,2.986169 -2.94486,5.316923 -0.0807,1.651287 -0.001,2.049986 0.65835,3.304591 1.75195,3.331944 5.53005,4.617278 8.74739,2.975913 z m 43.46426,12.500081 c -6.78739,-0.752584 -12.167,-3.405837 -16.65983,-8.216716 -1.4891,-1.594518 -1.86099,-2.159238 -1.86094,-2.825844 3e-5,-0.458201 0.35973,-4.166842 0.79933,-8.241425 0.43959,-4.074583 0.92969,-8.658489 1.0891,-10.186458 0.32822,-3.145933 0.16843,-8.675126 -0.31335,-10.842884 l -0.32229,-1.450177 1.90132,-1.781027 c 6.50233,-6.09094 15.66357,-8.252706 23.7656,-5.607936 7.27716,2.375503 12.74992,7.715776 13.98688,13.648261 0.80247,3.848635 -0.47698,6.44 -4.07319,8.249805 -0.68586,0.345156 -6.1881,2.800324 -12.22722,5.455927 -6.03911,2.655604 -11.07645,4.915957 -11.19407,5.023008 -0.30454,0.277153 2.22038,1.835929 3.69055,2.278385 1.62031,0.487643 4.94472,0.475248 6.62828,-0.02471 0.7356,-0.218451 2.25882,-0.998655 3.38493,-1.733785 2.8727,-1.875316 3.75471,-2.181866 5.92489,-2.05924 2.39249,0.135189 4.04842,1.11322 5.23509,3.09198 1.11158,1.85355 1.33573,3.555276 0.72836,5.529552 -0.95591,3.107221 -5.77704,6.839259 -10.95844,8.482929 -2.98313,0.946323 -7.14111,1.474684 -9.525,1.210359 z m -0.56548,-30.64844 c 4.41842,-1.898716 8.04244,-3.57085 8.05338,-3.715852 0.0343,-0.454675 -2.16763,-1.957096 -3.33184,-2.273372 -1.60584,-0.43625 -5.06089,-0.154196 -6.66961,0.544473 -3.53252,1.534185 -6.03295,4.642897 -6.86408,8.533929 -0.13005,0.608805 -0.0816,0.692831 0.31238,0.541794 0.25646,-0.09832 4.08136,-1.732256 8.49977,-3.630972 z m -86.71076,29.91991 c -1.39016,-0.503079 -2.84229,-1.884153 -3.58089,-3.405688 -0.49052,-1.010471 -0.78697,-2.305903 -1.08279,-4.731445 -0.40707,-3.33777 -0.4069,-3.341655 0.24873,-5.791529 2.00955,-7.509039 1.18465,-15.443374 -2.33023,-22.413416 -0.87843,-1.741944 -0.96377,-2.105962 -0.96142,-4.101042 0.003,-2.539887 0.65553,-4.266053 2.14783,-5.681737 2.45616,-2.330058 5.82579,-2.235003 8.34934,0.235529 l 1.10705,1.083787 1.67108,-1.513921 c 2.79036,-2.527939 6.93608,-4.121857 9.70628,-3.731806 4.18703,0.589545 7.41948,4.452601 7.10681,8.493258 -0.31799,4.109339 -3.33833,7.17555 -7.35205,7.463692 -1.5207,0.10917 -1.96741,0.02256 -3.61622,-0.701102 -2.42071,-1.062455 -3.95028,-1.1069 -4.85523,-0.141079 -0.60663,0.647437 -0.64008,0.852006 -0.61647,3.770312 0.0137,1.697153 0.48554,7.193388 1.04846,12.213857 1.21338,10.821609 1.31999,14.43609 0.47217,16.007291 -1.50764,2.793969 -4.55579,3.996913 -7.46245,2.945039 z" /></g></g></g></g></g><g
       id="path3-0" /><g
       id="path11-7" /><path
       style="fill:#00a8ff;stroke-width:18.5359;stroke-linecap:round;stroke-linejoin:round;stroke-miterlimit:26.7"
       d="m 926.17759,-239.44226 c 0.63119,0.52443 1.25442,0.88593 1.89177,1.42963 l -1.65711,-1.42963 z"
       id="path19" /><g
       id="path16" /></g></svg>
