<svg xmlns="http://www.w3.org/2000/svg" id="Layer_2" viewBox="0 0 182.99 69.74"><defs><style>.cls-1{fill:#fff;}.cls-2{fill:#001689;}</style></defs><g id="Layer_1-2"><path d="M148.13,3.29c17.44,0,31.59,14.14,31.59,31.59h0c0,17.44-14.14,31.59-31.59,31.59H34.87c-17.44,0-31.59-14.14-31.59-31.59h0C3.29,17.43,17.43,3.29,34.87,3.29h113.25M148.13,0H34.87C15.64,0,0,15.64,0,34.87s15.64,34.87,34.87,34.87h113.25c19.23,0,34.87-15.64,34.87-34.87S167.36,0,148.13,0h0Z" class="cls-1" id="Keyline"/><rect ry="31.59" rx="31.59" height="63.17" width="176.43" y="3.29" x="3.29" class="cls-2" id="Lozenge"/><path d="M99.5,25.37c-5.03.24-7.8,3.74-7.78,9.84v15.85h-5.85v-31.06h.32c1.37,0,2.81.05,3.85.73.9.59,1.42,1.55,1.59,3,1.91-3.07,5.47-4.32,11.34-4.02h.27s.03.28.03.28c.01.09,0,.29,0,.7,0,.29-.02.63-.02.91,0,2.39-1.26,3.65-3.75,3.77ZM75.44,21.12c-.78.78-1.18,1.99-1.17,3.59v15.11c0,4.43-2.16,6.68-6.45,6.69h-.03c-4.26,0-6.43-2.24-6.45-6.67v-15.08c0-4.78-3.27-4.78-5.59-4.77h-.32v20.6c0,3.6,1.29,6.55,3.71,8.53,2.17,1.78,5.22,2.72,8.65,2.72h.04c3.44,0,6.51-.96,8.68-2.75,2.41-1.99,3.68-4.95,3.67-8.55v-20.55h-.63c-1.14,0-2.96-.02-4.11,1.12ZM127.49,38.28l-19.24.04c1.05,4.8,5.08,8.12,9.91,8.12h.02c3.62,0,6.55-1.69,8.48-4.86h6.08l-.06.15c-2.31,6.06-8.07,9.98-14.67,10h-.04c-4.35,0-8.35-1.58-11.24-4.46-2.93-2.91-4.54-6.95-4.55-11.39-.02-9.11,6.76-16,15.77-16.02h.04c7.2,0,12.9,4.2,14.86,10.96h0c.57,1.99.28,4.01-.78,5.43-.7.93-2.06,2.04-4.58,2.04ZM127.2,31.66c-1.07-3.85-4.72-6.43-9.08-6.43h-.02c-4.74.01-8.72,3.3-9.82,8.04l17.79-.04c.49,0,.83-.13,1.03-.39.2-.27.24-.7.11-1.18ZM49.46,9.19l.28.03v41.84h-5.77v-3.13c-2.84,2.59-6.46,4.01-10.37,4.02h-.04c-4.28,0-8.24-1.6-11.17-4.5-2.97-2.95-4.61-7-4.62-11.42,0-4.42,1.61-8.48,4.57-11.45,2.92-2.93,6.9-4.54,11.19-4.55h.04c4.13,0,7.95,1.45,10.41,3.91v-10.36c0-1.38.4-2.47,1.25-3.23,1.61-1.44,4.13-1.17,4.24-1.16ZM44,35.97c-.01-6.1-4.31-10.53-10.21-10.53h-.03c-5.63.01-10.2,4.75-10.19,10.57,0,2.82,1.08,5.46,3.01,7.45,1.93,1.98,4.48,3.07,7.2,3.07h.02c6.2-.01,10.21-4.16,10.19-10.57ZM170.11,23.6c0,2.02-1.59,3.66-3.55,3.66s-3.55-1.64-3.55-3.66,1.59-3.66,3.55-3.66,3.55,1.64,3.55,3.66ZM169.51,23.6c0-1.69-1.32-3.05-2.95-3.05s-2.95,1.37-2.95,3.05,1.32,3.05,2.95,3.05,2.95-1.37,2.95-3.05ZM167.75,24.76l.6.93h-.7l-1.13-1.8h-.7v1.8h-.65v-4.18h1.62c.25,0,.46.03.65.08.18.05.33.12.45.22.06.05.11.1.16.17.13.19.21.43.21.74,0,.34-.09.6-.27.78-.02.02-.03.04-.05.05-.06.05-.14.08-.21.12-.14.08-.31.14-.49.16-.03,0-.06.02-.1.02l.6.93ZM167.08,23.32c.07-.01.13-.03.19-.06.05-.02.1-.05.14-.08.04-.03.07-.07.1-.12,0,0,0-.02.01-.03.05-.09.08-.21.08-.36,0-.12-.03-.21-.07-.29,0-.02-.01-.03-.02-.05-.01-.02-.03-.04-.05-.06-.05-.06-.1-.1-.16-.14-.02,0-.04-.02-.07-.03-.07-.03-.14-.05-.22-.06-.11-.02-.22-.02-.33-.02h-.87v1.32h.69c.07,0,.13,0,.2,0,.07,0,.15,0,.21,0,.06,0,.11-.01.17-.02ZM164.82,13.95h-3.46c-2.71,0-3.81.78-5.16,2.74-2.71,4-8.78,13.47-9.19,14.09-1.02-1.5-5-7.34-5.94-8.68-.96-1.39-2.4-2.1-4.27-2.1h-4.13l11.06,15.53-10.56,15.53h6.74l7.09-10.69c1.52,2.22,2.21,3.26,7.29,10.69h6.73s-10.72-15.52-10.72-15.52l14.51-21.58Z" class="cls-1" id="Durex"/></g></svg>