<svg xmlns="http://www.w3.org/2000/svg" viewBox="-0.00020000000949949026 0.00020000000949949026 600 600"><g id="ea-play-circle" fill="none" fill-rule="evenodd" viewBox="0 0 600 600"><defs><polygon id="eaplay_logo_white-a" points="0 0 600 0 600 600 0 600"></polygon></defs><mask id="eaplay_logo_white-b" fill="#fff"><use href="#eaplay_logo_white-a"></use></mask><path fill="#FF4747" d="M468.5908,391.4932 L442.3788,349.6502 L365.8448,349.6502 L392.0978,307.7292 L416.2778,307.7292 L387.0508,261.0652 L305.5258,391.4932 L88.0198,391.4932 L140.3908,307.7292 L101.9368,307.7292 L128.0748,265.8102 L296.2048,265.8102 L270.0488,307.7292 L189.8618,307.7292 L163.6488,349.6502 L282.2698,349.6502 L387.0508,181.9522 L518.0078,391.4932 L468.5908,391.4932 Z M180.4658,181.9522 L352.9258,181.9522 L326.7138,223.8912 L154.2708,223.8912 L180.4658,181.9522 Z M299.9908,0.0002 C134.3168,0.0002 -0.0002,134.3272 -0.0002,300.0082 C-0.0002,465.7292 134.3168,600.0002 299.9908,600.0002 C465.6598,600.0002 599.9998,465.7292 599.9998,300.0082 C599.9998,134.3272 465.6598,0.0002 299.9908,0.0002 L299.9908,0.0002 Z" mask="url(#eaplay_logo_white-b)"></path></g></svg>