<svg xmlns="http://www.w3.org/2000/svg" aria-labelledby="logo" role="img" class="icon icon-logo icon-logo-dims " aria-hidden="true" focusable="false" viewBox="0 0 129 47">
<title id="logo">Herman Miller</title>

<path d="M19.721 30.013s-2.733-.977-7.03-.977c-4.295 0-7.029.977-7.029.977V16.735h.196s1.171 11.716 6.834 11.716c5.662 0 6.834-11.716 6.834-11.716h.195v13.278zm-7.03-19.396C5.663 10.617 0 16.345 0 23.374c0 7.03 5.728 12.757 12.757 12.757 7.03 0 12.757-5.728 12.757-12.757 0-7.03-5.793-12.757-12.822-12.757zM129 20.836a2.006 2.006 0 00-.716-.13c-.911 0-1.626.52-2.147 1.301v-.13c0-.52-.131-.781-.326-1.107l-1.627.456c.195.52.261 1.107.261 2.083v5.923h1.822V23.7c.065-.456.195-.651.521-.912.325-.325.716-.39 1.106-.39.195 0 .325.065.52.13l.586-1.692zm-5.988 4.62v-.325c0-1.822-.39-2.864-1.041-3.514-.586-.586-1.432-.911-2.408-.911-1.041 0-1.888.39-2.603 1.106-.651.716-1.042 1.757-1.042 3.19 0 2.668 1.497 4.36 3.905 4.36 1.107 0 2.213-.39 3.059-1.107l-.716-1.041c-.65.52-1.366.781-2.147.781-.781 0-1.432-.325-1.823-.846-.26-.39-.39-.977-.39-1.562v-.13h5.206zm-7.679 3.71l-.326-1.04c-.26.064-.455 0-.586-.13-.13-.196-.195-.522-.195-1.303v-7.159c0-1.041 0-1.822-.13-2.343l-1.823.39c.131.651.196 1.237.196 2.409v7.159c0 .911.195 1.367.39 1.692.261.39.781.586 1.367.586.391-.065.716-.13 1.107-.26zm-8.917-10.674c0-.65-.521-1.171-1.237-1.171-.651 0-1.237.52-1.237 1.171s.586 1.172 1.172 1.172c.781 0 1.302-.52 1.302-1.172zm4.751 10.675l-.326-1.042h-.195c-.325 0-.586-.195-.586-.78v-7.811c0-1.041 0-1.822-.13-2.343l-1.822.39c.13.651.195 1.237.195 2.409v7.484c0 1.237.716 1.953 1.757 1.953.456-.065.781-.13 1.107-.26zm-5.077 0v-8.461l-1.822.26v8.136h1.822v.065zm-3.644 0l-.977-11.325h-2.538l-2.278 8.33-2.278-8.265h-2.603l-1.107 11.325h1.692l.781-9.503 2.669 9.503h1.367l2.668-9.308.781 9.308h1.823v-.065zm-13.799 0v-6.118c0-1.563-.91-2.279-2.278-2.279-.91 0-1.627.326-2.603 1.107 0-.39-.13-.781-.326-1.107l-1.627.456c.26.586.26.976.26 1.953v6.118h1.758v-5.988c.586-.586 1.367-.976 1.953-.976.715 0 .976.325.976 1.497v5.467h1.887v-.13zm-8.005-.782c-.586-.39-.781-.715-.781-1.692v-.26l.065-2.473v-.521c0-.846-.065-1.106-.13-1.432-.326-.911-1.237-1.367-2.539-1.367-.78 0-1.497.13-2.278.456-.455.195-.91.39-1.366.65l.78 1.238c.326-.26.586-.391 1.042-.586.586-.26 1.106-.39 1.562-.39.52 0 .781.13.976.39.195.26.26.52.26 1.106v.586h-.585c-2.799 0-4.296.976-4.296 2.929 0 .65.195 1.367.651 1.757.52.456 1.107.651 2.148.651a3.33 3.33 0 001.822-.52c.195-.13.26-.261.521-.521.195.52.65.91 1.171 1.106l.977-1.107zm-8.787.782v-6.053c0-.912-.195-1.497-.65-1.888-.326-.325-.977-.52-1.563-.52-.91 0-1.887.455-2.603 1.236-.39-.78-1.107-1.236-2.018-1.236-.78 0-1.692.455-2.278 1.04a3.93 3.93 0 00-.325-1.04l-1.627.39c.26.52.325.846.325 2.018v5.988h1.757v-6.119c.716-.585 1.302-.846 1.823-.846.716 0 .976.39.976 1.302v5.663h1.757v-5.988c.716-.716 1.367-1.042 1.888-1.042.65 0 .911.326.911 1.172v5.793h1.627v.13zM60.27 20.836a2.008 2.008 0 00-.716-.13c-.911 0-1.562.52-2.148 1.301v-.13c0-.52-.13-.781-.325-1.107l-1.692.456c.195.52.26 1.107.26 2.083v5.923h1.822V23.7c.065-.456.196-.651.521-.912.326-.325.716-.39 1.107-.39.195 0 .325.065.52.13l.65-1.692zm-5.923 4.62v-.325c0-1.822-.39-2.864-1.041-3.514-.586-.586-1.432-.911-2.343-.911-1.107 0-1.953.39-2.604 1.106-.65.716-1.041 1.757-1.041 3.19 0 2.668 1.497 4.36 3.905 4.36 1.172 0 2.213-.39 3.06-1.107l-.717-1.041c-.65.52-1.367.781-2.148.781-.78 0-1.431-.325-1.822-.846-.26-.39-.325-.977-.325-1.562v-.13h5.076zm-8.526 3.71v-11.26H44v4.557h-4.231v-4.556h-1.822v11.325h1.822V23.96h4.23v5.272l1.823-.065zm75.304-4.946h-3.189c.065-1.432.586-2.213 1.627-2.213.976 0 1.562.846 1.562 2.213zm-42.957 1.042l-.065 1.952c-.325.586-.976.911-1.627.911-.78 0-1.236-.455-1.236-1.301 0-.521.13-.847.455-1.107.326-.325.977-.52 2.083-.52.13.065.26.065.39.065zM52.46 24.22h-3.255c0-1.432.651-2.213 1.628-2.213 1.041 0 1.627.846 1.627 2.213z" fill="#E22D00"></path></svg>