<svg id="Layer_1" data-name="Layer 1" xmlns="http://www.w3.org/2000/svg" viewBox="0 0 638 145.76"><defs><style>.cls-1{fill:#a19c97;}.cls-2{fill:#070606;}.cls-3{fill:#ffd300;}.cls-4{fill:#999;}</style></defs><title>Klim Logo Vector</title><path class="cls-1" d="M774.86,558.93a6.94,6.94,0,1,1-6.89,6.92,6.82,6.82,0,0,1,6.89-6.92Zm0,1.07a5.87,5.87,0,1,0,5.58,5.88,5.7,5.7,0,0,0-5.58-5.88Zm-1.28,9.87h-1.23v-7.71a13.79,13.79,0,0,1,2.18-.19,4.14,4.14,0,0,1,2.4.58,2,2,0,0,1-.8,3.48v.06c.68.13,1.14.74,1.29,1.88a6.19,6.19,0,0,0,.49,1.9h-1.3a6,6,0,0,1-.51-2,1.45,1.45,0,0,0-1.67-1.35h-.85Zm0-4.27h.89c1,0,1.88-.37,1.88-1.32,0-.68-.5-1.35-1.88-1.35a6.06,6.06,0,0,0-.89.06Z" transform="translate(-181 -427.12)"/><path class="cls-2" d="M267.55,427.12c-17.27,0-37.16,13.9-46.25,32.34l.77-1c-1.56,2.66-7.2,14.1-36.62,73.82a42.4,42.4,0,0,0-4.27,14.18,26.32,26.32,0,0,0,2.5,15c3.82,7.39,11.08,11.45,20.43,11.45H732.46c17.3,0,37.17-13.91,46.23-32.36l35.87-72.75a42.24,42.24,0,0,0,4.27-14.16,26.81,26.81,0,0,0-2.49-15c-3.85-7.38-11.11-11.46-20.46-11.46Z" transform="translate(-181 -427.12)"/><path class="cls-3" d="M266.86,433.58c-14.81,0-32.61,12.52-40.5,28.52l-35.85,72.77c-4.28,8.69-4.9,17.21-1.7,23.38,2.92,5.62,8.57,8.71,15.91,8.71H733.08c14.83,0,32.62-12.54,40.49-28.54l35.87-72.77A35.38,35.38,0,0,0,813,453.86a20.2,20.2,0,0,0-1.88-11.57c-2.92-5.63-8.57-8.71-15.92-8.71ZM196.53,553.12c-1.85-3.55-1.27-8.91,1.58-14.7L234,465.65c6.11-12.37,20.75-22.84,31.94-22.84H794.25c4.43,0,7.6,1.59,9.16,4.61,1.84,3.54,1.27,8.9-1.57,14.68L766,534.87c-6.08,12.38-20.71,22.84-31.92,22.84H205.69C201.25,557.71,198.08,556.13,196.53,553.12ZM783,538.42Z" transform="translate(-181 -427.12)"/><path class="cls-3" d="M411.12,459c0-.06-41.27,0-45.68,0l-2.28,3.12,12,3s-53.75,18.23-71.89,22.75L315.69,466l15.57-3.46,1.79-3.56H268.11l-3.32,4.19,15.45,2.92L241.19,535l-14.64,2.13-2.1,3.66c13.47,0,70.09,0,70.09,0l1.33-3.35-19.5-2.19,22-38.71a42.47,42.47,0,0,0,4.44-1c24.13,45.27,68.43,45.26,68.43,45.26-24.34-22-32.52-55.54-32.52-55.54l69.88-21.79Z" transform="translate(-181 -427.12)"/><path class="cls-4" d="M569.13,467.62l-81.28,7.22,9.39-15.68,77.23-.1Z" transform="translate(-181 -427.12)"/><path class="cls-3" d="M376.5,540.77s2.06-3.55,2.1-3.66L395.06,535l39.06-68.9-13.83-2.64,3.22-4.42h47.27l-43,75.64,19.49,2.19s-1.51,3.93-1.61,3.92S390,540.74,376.5,540.77Z" transform="translate(-181 -427.12)"/><path class="cls-3" d="M452.8,540.77s2.05-3.55,2.1-3.66l15.7-2.74,23.06-41.08-13.05-4.49,1.61-2.63,51.49-4.29-29.65,52.65L521.88,537s-1.66,3.79-1.75,3.78S466.27,540.74,452.8,540.77Z" transform="translate(-181 -427.12)"/><path class="cls-3" d="M752.46,484.34s-2.59-1.72-4.64-2.81a30.87,30.87,0,0,0-6.11-2.36c-7.34-2.14-15.14-2.62-22.64-2.58-10.39.05-22.41,1.76-38.76,6.91-1.3-.8-2.93-1.86-3.14-2a34.52,34.52,0,0,0-6.12-2.36c-7.35-2.14-15.15-2.62-22.64-2.58-10.95.05-23.71,1.94-41.44,7.78l4.66-7.59-53.89,7.71-1.62,2.73,13.07,4.38-24,42.77-15.92,2.69c0,.12-2.1,3.67-2.1,3.67,13.47,0,67.27,0,67.33,0s1.32-3.36,1.32-3.36L578.24,535l25.23-44.7c13.85.76,30.64.25,39.3,2.87l-23.54,41.53-15.58,2.4c0,.12-2.1,3.67-2.1,3.67l64.13-.09,1.4-4-16.36-1.5,25.13-44.75c13.64,1.12,30.08.48,38,2.95l-23.53,41.55-14.65,2.13c0,.12-2.26,3.58-2.26,3.58h67.33l1.49-3.27L723.62,535Z" transform="translate(-181 -427.12)"/></svg>