<?xml version="1.0" standalone="no"?><!DOCTYPE svg PUBLIC "-//W3C//DTD SVG 1.1//EN" "http://www.w3.org/Graphics/SVG/1.1/DTD/svg11.dtd"><svg t="1771825975363" class="icon" viewBox="0 0 1024 1024" version="1.1" xmlns="http://www.w3.org/2000/svg" p-id="7152" xmlns:xlink="http://www.w3.org/1999/xlink" width="200" height="200"><path d="M128 960h64v64H128zM192 960h64v64H192zM192 896h64v64H192zM256 896h64v64H256zM256 960h64v64H256zM320 960h64v64h-64zM320 896h64v64h-64z" fill="#F6C286" p-id="7153"></path><path d="M320 832h64v64h-64zM320 768h64v64h-64zM448 768h64v64h-64zM640 768h64v64h-64zM640 832h64v64h-64z" fill="#E60113" p-id="7154"></path><path d="M640 896h64v64h-64zM640 960h64v64h-64zM192 768h64v64H192z" fill="#F6C286" p-id="7155"></path><path d="M320 704h64v64h-64zM448 704h64v64h-64zM640 704h64v64h-64z" fill="#E60113" p-id="7156"></path><path d="M192 704h64v64H192z" fill="#F6C286" p-id="7157"></path><path d="M320 640h64v64h-64zM448 640h64v64h-64zM640 640h64v64h-64z" fill="#E60113" p-id="7158"></path><path d="M192 640h64v64H192z" fill="#F6C286" p-id="7159"></path><path d="M320 576h64v64h-64z" fill="#3357D9" p-id="7160"></path><path d="M320 384h64v64h-64z" fill="#F6C286" p-id="7161"></path><path d="M320 192h64v64h-64z" fill="#3357D9" p-id="7162"></path><path d="M256 192h64v64H256z" fill="#F6C286" p-id="7163"></path><path d="M192 192h64v64H192z" fill="#3357D9" p-id="7164"></path><path d="M448 576h64v64h-64z" fill="#E60113" p-id="7165"></path><path d="M448 384h64v64h-64zM448 192h64v64h-64z" fill="#F6C286" p-id="7166"></path><path d="M640 576h64v64h-64zM320 512h64v64h-64z" fill="#3357D9" p-id="7167"></path><path d="M320 320h64v64h-64z" fill="#F6C286" p-id="7168"></path><path d="M256 320h64v64H256zM192 320h64v64H192zM320 128h64v64h-64zM256 128h64v64H256zM448 512h64v64h-64z" fill="#3357D9" p-id="7169"></path><path d="M448 320h64v64h-64zM448 128h64v64h-64z" fill="#F6C286" p-id="7170"></path><path d="M640 512h64v64h-64z" fill="#3357D9" p-id="7171"></path><path d="M384 512h64v64h-64z" fill="#E60113" p-id="7172"></path><path d="M384 320h64v64h-64z" fill="#F6C286" p-id="7173"></path><path d="M384 128h64v64h-64zM512 512h64v64h-64z" fill="#3357D9" p-id="7174"></path><path d="M512 320h64v64h-64zM512 128h64v64h-64z" fill="#F6C286" p-id="7175"></path><path d="M704 512h64v64h-64z" fill="#3357D9" p-id="7176"></path><path d="M576 512h64v64h-64z" fill="#E60113" p-id="7177"></path><path d="M576 320h64v64h-64zM704 320h64v64h-64zM640 320h64v64h-64zM768 320h64v64h-64zM576 128h64v64h-64z" fill="#050B1D" p-id="7178"></path><path d="M640 128h64v64h-64z" fill="#F6C286" p-id="7179"></path><path d="M768 512h64v64h-64zM320 448h64v64h-64zM320 256h64v64h-64z" fill="#3357D9" p-id="7180"></path><path d="M256 256h64v64H256z" fill="#F6C286" p-id="7181"></path><path d="M192 256h64v64H192z" fill="#3357D9" p-id="7182"></path><path d="M320 64h64v64h-64zM256 64h64v64H256zM320 0h64v64h-64z" fill="#E60113" p-id="7183"></path><path d="M448 448h64v64h-64z" fill="#3357D9" p-id="7184"></path><path d="M448 256h64v64h-64z" fill="#F6C286" p-id="7185"></path><path d="M448 64h64v64h-64zM640 64h64v64h-64zM448 0h64v64h-64zM384 448h64v64h-64z" fill="#E60113" p-id="7186"></path><path d="M384 256h64v64h-64z" fill="#3357D9" p-id="7187"></path><path d="M384 64h64v64h-64zM384 0h64v64h-64z" fill="#E60113" p-id="7188"></path><path d="M512 448h64v64h-64z" fill="#3357D9" p-id="7189"></path><path d="M512 256h64v64h-64z" fill="#F6C286" p-id="7190"></path><path d="M512 64h64v64h-64zM704 64h64v64h-64zM512 0h64v64h-64z" fill="#E60113" p-id="7191"></path><path d="M576 448h64v64h-64z" fill="#3357D9" p-id="7192"></path><path d="M576 256h64v64h-64zM704 256h64v64h-64z" fill="#F6C286" p-id="7193"></path><path d="M640 256h64v64h-64z" fill="#050B1D" p-id="7194"></path><path d="M768 256h64v64h-64zM832 256h64v64h-64z" fill="#F6C286" p-id="7195"></path><path d="M576 64h64v64h-64zM768 64h64v64h-64zM576 0h64v64h-64z" fill="#E60113" p-id="7196"></path><path d="M192 576h64v64H192zM192 512h64v64H192z" fill="#3357D9" p-id="7197"></path><path d="M384 832h64v64h-64zM384 768h64v64h-64zM512 768h64v64h-64zM704 768h64v64h-64zM704 832h64v64h-64z" fill="#E60113" p-id="7198"></path><path d="M704 896h64v64h-64zM704 960h64v64h-64zM768 896h64v64h-64zM768 960h64v64h-64zM832 960h64v64h-64z" fill="#F6C286" p-id="7199"></path><path d="M576 768h64v64h-64zM576 832h64v64h-64z" fill="#E60113" p-id="7200"></path><path d="M768 768h64v64h-64zM832 768h64v64h-64z" fill="#F6C286" p-id="7201"></path><path d="M384 704h64v64h-64zM512 704h64v64h-64z" fill="#E60113" p-id="7202"></path><path d="M704 704h64v64h-64z" fill="#F6C286" p-id="7203"></path><path d="M576 704h64v64h-64z" fill="#E60113" p-id="7204"></path><path d="M768 704h64v64h-64zM832 704h64v64h-64zM384 640h64v64h-64z" fill="#F6C286" p-id="7205"></path><path d="M512 640h64v64h-64z" fill="#E60113" p-id="7206"></path><path d="M704 640h64v64h-64z" fill="#3357D9" p-id="7207"></path><path d="M576 640h64v64h-64zM768 640h64v64h-64zM832 640h64v64h-64z" fill="#F6C286" p-id="7208"></path><path d="M384 576h64v64h-64z" fill="#E60113" p-id="7209"></path><path d="M384 384h64v64h-64zM384 192h64v64h-64z" fill="#F6C286" p-id="7210"></path><path d="M512 576h64v64h-64z" fill="#E60113" p-id="7211"></path><path d="M512 384h64v64h-64zM512 192h64v64h-64z" fill="#F6C286" p-id="7212"></path><path d="M704 576h64v64h-64z" fill="#3357D9" p-id="7213"></path><path d="M576 576h64v64h-64z" fill="#E60113" p-id="7214"></path><path d="M576 384h64v64h-64zM704 384h64v64h-64zM640 384h64v64h-64z" fill="#F6C286" p-id="7215"></path><path d="M576 192h64v64h-64z" fill="#050B1D" p-id="7216"></path><path d="M704 192h64v64h-64zM640 192h64v64h-64zM768 192h64v64h-64z" fill="#F6C286" p-id="7217"></path><path d="M768 576h64v64h-64zM832 576h64v64h-64z" fill="#3357D9" p-id="7218"></path><path d="M256 832h64v64H256zM256 768h64v64H256z" fill="#E60113" p-id="7219"></path><path d="M128 768h64v64H128zM256 704h64v64H256zM128 704h64v64H128z" fill="#F6C286" p-id="7220"></path><path d="M256 640h64v64H256z" fill="#3357D9" p-id="7221"></path><path d="M128 640h64v64H128z" fill="#F6C286" p-id="7222"></path><path d="M256 576h64v64H256zM256 512h64v64H256zM256 448h64v64H256zM128 576h64v64H128z" fill="#3357D9" p-id="7223"></path></svg>