<svg version="1.1" id="Layer_1" xmlns:x="ns_extend;" xmlns:i="ns_ai;" xmlns:graph="ns_graphs;" xmlns="http://www.w3.org/2000/svg" xmlns:xlink="http://www.w3.org/1999/xlink" x="0px" y="0px" viewBox="0 0 217.7 40" style="enable-background:new 0 0 217.7 40;" xml:space="preserve">
 <style type="text/css">
  .st0{fill:#21232E;}
	.st1{fill-rule:evenodd;clip-rule:evenodd;fill:url(#SVGID_1_);}
	.st2{fill-rule:evenodd;clip-rule:evenodd;fill:url(#SVGID_2_);fill-opacity:0.3;}
	.st3{fill-rule:evenodd;clip-rule:evenodd;fill:url(#SVGID_3_);fill-opacity:0.2;}
	.st4{fill-rule:evenodd;clip-rule:evenodd;fill:url(#SVGID_4_);fill-opacity:0.4;}
	.st5{fill-rule:evenodd;clip-rule:evenodd;fill:#FFFFFF;filter:url(#Adobe_OpacityMaskFilter);}
	.st6{mask:url(#path-2-inside-1_333_12452_1_);fill-opacity:0.12;}
 </style>
 <metadata>
  <sfw xmlns="ns_sfw;">
   <slices>
   </slices>
   <sliceSourceBounds bottomLeftOrigin="true" height="40" width="217.7" x="-107.8" y="-0.1">
   </sliceSourceBounds>
  </sfw>
 </metadata>
 <g>
  <path class="st0" d="M110.1,36.4l-8.9-12.3c3.6-1.6,5.8-4.4,5.8-8.7c0-6.3-4.4-9.7-11.8-9.7H84.5v30.7H92V25.9h1.9l6.8,10.5H110.1z
		 M99.5,15.9c0,2.9-1.9,4.5-5.2,4.5H92v-8.9h2.4C97.7,11.5,99.5,13,99.5,15.9z">
  </path>
  <path class="st0" d="M129,34.4l-0.7-4.8c-2.4,1.4-4.8,2.3-7.2,2.3c-3,0-5-1.3-5.4-4.8h13.2c0-0.4,0.1-1.1,0.1-1.7
		c0-6.3-2.9-11.3-9.6-11.3c-5.9,0-10.3,4.3-10.3,11.4c0,7.7,4.7,11.2,11.2,11.2C123.7,36.8,126.6,35.9,129,34.4z M119.2,18.5
		c2,0,3.2,1.7,3.4,5h-6.9C115.9,20.2,117.3,18.5,119.2,18.5z">
  </path>
  <path class="st0" d="M161.2,14.6H155l-2.9,12.7L149,14.6h-6l-3.1,12.7l-3-13l-6.9,0.8l6,21.3h6.4l3.2-12.4l3.2,12.4h6.4L161.2,14.6
		z">
  </path>
  <path class="st0" d="M170.8,8.2c0-2.2-1.6-3.7-3.8-3.7c-2.1,0-3.8,1.5-3.8,3.7c0,2.2,1.7,3.6,3.8,3.6
		C169.2,11.8,170.8,10.3,170.8,8.2z M170.4,36.4V14.6h-6.8v21.8H170.4z">
  </path>
  <path class="st0" d="M194.1,36.4V20.9c0-4.3-2.1-6.8-6.2-6.8c-2.8,0-4.8,1.5-6.8,3.4l-0.5-3h-5.9v21.8h6.7V22.1
		c1.2-1.2,2.4-2,3.7-2c1.6,0,2.2,1.1,2.2,2.6v13.6H194.1z">
  </path>
  <path class="st0" d="M217.7,36.4V4.3L211,5.4v9.8c-1.2-0.4-2.6-0.8-4.6-0.8c-4.8,0-9.2,3.4-9.2,11.7c0,7.3,3.4,10.7,7.9,10.7
		c2.8,0,4.8-1.6,6.3-3.3l0.4,2.8H217.7z M211,28.7c-1.2,1.3-2.3,2.2-3.7,2.2c-1.9,0-3.3-1.5-3.3-5.2c0-4.2,1.7-5.9,3.9-5.9
		c1.4,0,2.2,0.2,3.2,0.6V28.7z">
  </path>
  <linearGradient id="SVGID_1_" gradientUnits="userSpaceOnUse" x1="28.4726" y1="76.08" x2="38.9319" y2="9.3762" gradientTransform="matrix(1 0 0 -1 0 61.7998)">
   <stop offset="0" style="stop-color:#A73EFF">
   </stop>
   <stop offset="6.666670e-02" style="stop-color:#A63EFF">
   </stop>
   <stop offset="0.1333" style="stop-color:#A33CFD">
   </stop>
   <stop offset="0.2" style="stop-color:#9E3AFB">
   </stop>
   <stop offset="0.2667" style="stop-color:#9636F8">
   </stop>
   <stop offset="0.3333" style="stop-color:#8D32F4">
   </stop>
   <stop offset="0.4" style="stop-color:#812CF0">
   </stop>
   <stop offset="0.4667" style="stop-color:#7426EB">
   </stop>
   <stop offset="0.5333" style="stop-color:#6720E6">
   </stop>
   <stop offset="0.6" style="stop-color:#5B1AE0">
   </stop>
   <stop offset="0.6667" style="stop-color:#4F15DC">
   </stop>
   <stop offset="0.7333" style="stop-color:#4611D8">
   </stop>
   <stop offset="0.8" style="stop-color:#3E0DD5">
   </stop>
   <stop offset="0.8667" style="stop-color:#390BD3">
   </stop>
   <stop offset="0.9333" style="stop-color:#3609D2">
   </stop>
   <stop offset="1" style="stop-color:#3509D1">
   </stop>
  </linearGradient>
  <path class="st1" d="M32.1,17.7L60.8,0.6c2-1.2,4.5,0.6,4,2.9l-1,4c-2,8.2-2,16.7,0,24.9l1,4c0.6,2.3-1.9,4.1-4,2.9L32.1,22.3
		c-0.2-0.1-0.3-0.2-0.5-0.3c0.1,3.5,0.6,7,1.4,10.5l1,4c0.6,2.3-1.9,4.1-4,2.9L1.5,22.3c-1.7-1-1.7-3.6,0-4.6L30.1,0.6
		c2-1.2,4.5,0.6,4,2.9l-1,4c-0.8,3.4-1.3,7-1.4,10.5C31.8,17.9,32,17.8,32.1,17.7z">
  </path>
  <linearGradient id="SVGID_2_" gradientUnits="userSpaceOnUse" x1="32.5047" y1="61.6016" x2="32.5047" y2="19.1002" gradientTransform="matrix(1 0 0 -1 0 61.7998)">
   <stop offset="0" style="stop-color:#FFFFFF">
   </stop>
   <stop offset="6.666670e-02" style="stop-color:#FDFDFD">
   </stop>
   <stop offset="0.1333" style="stop-color:#F6F6F6">
   </stop>
   <stop offset="0.2" style="stop-color:#EAEAEA">
   </stop>
   <stop offset="0.2667" style="stop-color:#D9D9D9">
   </stop>
   <stop offset="0.3333" style="stop-color:#C4C4C4">
   </stop>
   <stop offset="0.4" style="stop-color:#AAAAAA">
   </stop>
   <stop offset="0.4667" style="stop-color:#8E8E8E">
   </stop>
   <stop offset="0.5333" style="stop-color:#717171">
   </stop>
   <stop offset="0.6" style="stop-color:#555555">
   </stop>
   <stop offset="0.6667" style="stop-color:#3B3B3B">
   </stop>
   <stop offset="0.7333" style="stop-color:#262626">
   </stop>
   <stop offset="0.8" style="stop-color:#151515">
   </stop>
   <stop offset="0.8667" style="stop-color:#090909">
   </stop>
   <stop offset="0.9333" style="stop-color:#020202">
   </stop>
   <stop offset="1" style="stop-color:#000000">
   </stop>
  </linearGradient>
  <path class="st2" d="M32.1,17.7L60.8,0.6c2-1.2,4.5,0.6,4,2.9l-1,4c-2,8.2-2,16.7,0,24.9l1,4c0.6,2.3-1.9,4.1-4,2.9L32.1,22.3
		c-0.2-0.1-0.3-0.2-0.5-0.3c0.1,3.5,0.6,7,1.4,10.5l1,4c0.6,2.3-1.9,4.1-4,2.9L1.5,22.3c-1.7-1-1.7-3.6,0-4.6L30.1,0.6
		c2-1.2,4.5,0.6,4,2.9l-1,4c-0.8,3.4-1.3,7-1.4,10.5C31.8,17.9,32,17.8,32.1,17.7z">
  </path>
  <linearGradient id="SVGID_3_" gradientUnits="userSpaceOnUse" x1="32.5047" y1="61.6016" x2="32.5047" y2="21.998" gradientTransform="matrix(1 0 0 -1 0 61.7998)">
   <stop offset="0" style="stop-color:#FFFFFF">
   </stop>
   <stop offset="6.666670e-02" style="stop-color:#FDFDFD;stop-opacity:0.9914">
   </stop>
   <stop offset="0.1333" style="stop-color:#F6F6F6;stop-opacity:0.9645">
   </stop>
   <stop offset="0.2" style="stop-color:#EAEAEA;stop-opacity:0.9183">
   </stop>
   <stop offset="0.2667" style="stop-color:#D9D9D9;stop-opacity:0.8526">
   </stop>
   <stop offset="0.3333" style="stop-color:#C4C4C4;stop-opacity:0.7682">
   </stop>
   <stop offset="0.4" style="stop-color:#AAAAAA;stop-opacity:0.6681">
   </stop>
   <stop offset="0.4667" style="stop-color:#8E8E8E;stop-opacity:0.5573">
   </stop>
   <stop offset="0.5333" style="stop-color:#717171;stop-opacity:0.4427">
   </stop>
   <stop offset="0.6" style="stop-color:#555555;stop-opacity:0.3319">
   </stop>
   <stop offset="0.6667" style="stop-color:#3B3B3B;stop-opacity:0.2318">
   </stop>
   <stop offset="0.7333" style="stop-color:#262626;stop-opacity:0.1474">
   </stop>
   <stop offset="0.8" style="stop-color:#151515;stop-opacity:8.165990e-02">
   </stop>
   <stop offset="0.8667" style="stop-color:#090909;stop-opacity:3.551000e-02">
   </stop>
   <stop offset="0.9333" style="stop-color:#020202;stop-opacity:1.000000e-02">
   </stop>
   <stop offset="1" style="stop-color:#000000;stop-opacity:0">
   </stop>
  </linearGradient>
  <path class="st3" d="M32.1,17.7L60.8,0.6c2-1.2,4.5,0.6,4,2.9l-1,4c-2,8.2-2,16.7,0,24.9l1,4c0.6,2.3-1.9,4.1-4,2.9L32.1,22.3
		c-0.2-0.1-0.3-0.2-0.5-0.3c0.1,3.5,0.6,7,1.4,10.5l1,4c0.6,2.3-1.9,4.1-4,2.9L1.5,22.3c-1.7-1-1.7-3.6,0-4.6L30.1,0.6
		c2-1.2,4.5,0.6,4,2.9l-1,4c-0.8,3.4-1.3,7-1.4,10.5C31.8,17.9,32,17.8,32.1,17.7z">
  </path>
  <linearGradient id="SVGID_4_" gradientUnits="userSpaceOnUse" x1="32.5047" y1="61.6016" x2="32.5047" y2="21.998" gradientTransform="matrix(1 0 0 -1 0 61.7998)">
   <stop offset="0.4792" style="stop-color:#FFFFFF;stop-opacity:0.17">
   </stop>
   <stop offset="1" style="stop-color:#FFFFFF">
   </stop>
  </linearGradient>
  <path class="st4" d="M32.1,17.7L60.8,0.6c2-1.2,4.5,0.6,4,2.9l-1,4c-2,8.2-2,16.7,0,24.9l1,4c0.6,2.3-1.9,4.1-4,2.9L32.1,22.3
		c-0.2-0.1-0.3-0.2-0.5-0.3c0.1,3.5,0.6,7,1.4,10.5l1,4c0.6,2.3-1.9,4.1-4,2.9L1.5,22.3c-1.7-1-1.7-3.6,0-4.6L30.1,0.6
		c2-1.2,4.5,0.6,4,2.9l-1,4c-0.8,3.4-1.3,7-1.4,10.5C31.8,17.9,32,17.8,32.1,17.7z">
  </path>
  <defs>
   <filter id="Adobe_OpacityMaskFilter" filterUnits="userSpaceOnUse" x="0" y="0" width="65" height="40">
    <feColorMatrix type="matrix" values="1 0 0 0 0  0 1 0 0 0  0 0 1 0 0  0 0 0 1 0">
    </feColorMatrix>
   </filter>
  </defs>
  <mask maskUnits="userSpaceOnUse" x="0" y="0" width="65" height="40" id="path-2-inside-1_333_12452_1_">
   <path class="st5" d="M32.1,17.7L60.8,0.6c2-1.2,4.5,0.6,4,2.9l-1,4c-2,8.2-2,16.7,0,24.9l1,4c0.6,2.3-1.9,4.1-4,2.9L32.1,22.3
			c-0.2-0.1-0.3-0.2-0.5-0.3c0.1,3.5,0.6,7,1.4,10.5l1,4c0.6,2.3-1.9,4.1-4,2.9L1.5,22.3c-1.7-1-1.7-3.6,0-4.6L30.1,0.6
			c2-1.2,4.5,0.6,4,2.9l-1,4c-0.8,3.4-1.3,7-1.4,10.5C31.8,17.9,32,17.8,32.1,17.7z">
   </path>
  </mask>
  <path class="st6" d="M60.8,0.6l-0.1-0.2l0,0L60.8,0.6z M32.1,17.7L32,17.5l0,0L32.1,17.7z M64.7,3.5l-0.2,0l0,0L64.7,3.5z
		 M63.8,7.6l0.2,0L63.8,7.6z M63.8,32.4l0.2,0L63.8,32.4z M64.7,36.5l-0.2,0L64.7,36.5z M60.8,39.4l-0.1,0.2L60.8,39.4z M32.1,22.3
		L32,22.5l0,0L32.1,22.3z M31.7,22l0.1-0.1l-0.3-0.3l0,0.5L31.7,22z M33.1,32.4l-0.2,0L33.1,32.4z M34.1,36.5l0.2,0L34.1,36.5z
		 M30.1,39.4l0.1-0.2L30.1,39.4z M1.5,22.3l0.1-0.2L1.5,22.3z M1.5,17.7l0.1,0.2L1.5,17.7z M30.1,0.6l0.1,0.2L30.1,0.6z M34.1,3.5
		l0.2,0L34.1,3.5z M33.1,7.6l-0.2,0L33.1,7.6z M31.7,18l-0.2,0l0,0.5l0.3-0.3L31.7,18z M60.7,0.4L32,17.5l0.2,0.3L60.9,0.8L60.7,0.4
		z M64.9,3.6c0.6-2.5-2.1-4.4-4.3-3.1l0.2,0.3c1.9-1.1,4.2,0.6,3.7,2.7L64.9,3.6z M64,7.6l1-4l-0.4-0.1l-1,4L64,7.6z M64,32.4
		C62,24.2,62,15.8,64,7.6l-0.4-0.1c-2,8.2-2,16.8,0,25L64,32.4z M64.9,36.4l-1-4l-0.4,0.1l1,4L64.9,36.4z M60.7,39.6
		c2.2,1.3,4.9-0.7,4.3-3.1l-0.4,0.1c0.5,2.1-1.8,3.8-3.7,2.7L60.7,39.6z M32,22.5l28.6,17.1l0.2-0.3L32.2,22.1L32,22.5z M31.6,22.1
		c0.1,0.1,0.3,0.3,0.5,0.4l0.2-0.3c-0.2-0.1-0.3-0.2-0.4-0.3L31.6,22.1z M33.3,32.4C32.5,29,32,25.5,31.9,22l-0.4,0
		c0.1,3.5,0.6,7.1,1.4,10.5L33.3,32.4z M34.3,36.4l-1-4l-0.4,0.1l1,4L34.3,36.4z M30,39.6c2.2,1.3,4.9-0.7,4.3-3.1l-0.4,0.1
		c0.5,2.1-1.8,3.8-3.7,2.7L30,39.6z M1.4,22.5L30,39.6l0.2-0.3L1.6,22.1L1.4,22.5z M1.4,17.5c-1.9,1.1-1.9,3.8,0,4.9l0.2-0.3
		c-1.6-1-1.6-3.3,0-4.3L1.4,17.5z M30,0.4L1.4,17.5l0.2,0.3L30.2,0.8L30,0.4z M34.3,3.6c0.6-2.5-2.1-4.4-4.3-3.1l0.2,0.3
		c1.9-1.1,4.2,0.6,3.7,2.7L34.3,3.6z M33.3,7.6l1-4l-0.4-0.1l-1,4L33.3,7.6z M31.9,18c0.1-3.5,0.6-7,1.4-10.4l-0.4-0.1
		c-0.8,3.5-1.3,7-1.4,10.5L31.9,18z M32,17.5c-0.2,0.1-0.3,0.2-0.5,0.4l0.3,0.3c0.1-0.1,0.3-0.2,0.4-0.3L32,17.5z">
  </path>
 </g>
</svg>