<svg id="Layer_1" data-name="Layer 1" xmlns="http://www.w3.org/2000/svg" width="438.09" height="91.46" viewBox="0 0 438.09 91.46"><title>Triumph Motorcycles logo - Brandlogos.net</title><path d="M358.11,365.74l14.53,21.75h5.09L393,365.82v32.66h12.53V346.87h-9.36c-3.54,0-4.8,1.77-7,4.87L375.52,371l-15.26-24.12h-9.89c-2.87,0-4.05,2.21-4.05,5v46.6h11.8Z" transform="translate(-164.96 -338.27)"/><path d="M429.32,382.77c.15,0,26.24.81,26.24-20.57,0-7.67-4.79-15.34-18.94-15.34H419.15c-2.88,0-4.06,2.21-4.06,5v46.6h14.24Zm0-26.77h4.28c7.74,0,9.43,4.28,9.43,7.67,0,10.54-13.71,10-13.71,10Z" transform="translate(-164.96 -338.27)"/><path d="M313.75,400.32c18.73,0,23-10.76,23-20V346.87H326.58c-2.87,0-4.05,2.21-4.05,5v27.43c0,4.57-1.33,10.76-8.77,10.76s-8.77-6.2-8.77-10.76V346.87H294.8c-2.88,0-4.05,2.21-4.05,5v28.46c0,9.22,4.27,20,23,20" transform="translate(-164.96 -338.27)"/><path d="M165,351.88V359h15.79v39.52h14.31V359h11.66c2.88,0,4.06-2.21,4.06-5v-7.08H168.94c-2.87,0-4,2.21-4,5" transform="translate(-164.96 -338.27)"/><path d="M281.18,346.87H271c-2.88,0-4.05,2.21-4.05,5v46.6h14.23V346.87Z" transform="translate(-164.96 -338.27)"/><path d="M501.21,346.88c-2.87,0-4.05,2.21-4.05,5v8.22a65.84,65.84,0,0,0-19.39,7.4V346.88H467.58c-2.87,0-4.05,2.21-4.05,5v25c-2.26,1.72-4.34,3.35-6.19,4.81-35,27.49-70,39.88-113.07,40.17-37.3.29-78.91-11.19-98.94-41.81,6.18-2.61,12-7.75,12-17.9,0-7.66-4.79-15.33-18.94-15.33H221c-2.88,0-4.06,2.21-4.06,5v46.59h14.37v-15.7h.82c22.75,27.26,59.41,47,112.16,47,50.19,0,86.58-16.14,119.26-40.87v9.61h14.24v-20c6.07-3.92,12.52-7.11,19.39-8.16v28.13h14.23V346.88ZM231.29,373.64V356h4.13c7.74,0,9.43,4.27,9.43,7.66,0,10.54-13.56,10-13.56,10" transform="translate(-164.96 -338.27)"/><path d="M531,338.27a7.59,7.59,0,0,0-2.49.33,4,4,0,0,0-2.57,2.31,6.07,6.07,0,0,0,.67,4.94l33.29,58.06c1.25,2.19,2.59,3.13,4.47,3.13s3.21-.94,4.47-3.13l33.28-58.06a6,6,0,0,0,.67-4.94,3.94,3.94,0,0,0-2.57-2.31,7.54,7.54,0,0,0-2.49-.33Z" transform="translate(-164.96 -338.27)"/><polygon points="412.67 25.09 420.53 29.35 422.12 26.57 412.67 21.68 424.92 21.68 427.38 17.39 408.37 17.39 408.37 50.54 412.67 43.06 412.67 25.09" style="fill:#fff"/><polygon points="386.12 25.09 378.25 29.35 376.65 26.57 386.12 21.68 373.86 21.68 371.4 17.39 390.4 17.39 390.4 50.54 386.12 43.06 386.12 25.09" style="fill:#fff"/></svg>