<svg height="210.05557" viewBox="0 0 130 210.05557" width="130" xmlns="http://www.w3.org/2000/svg">
  <path d="m8.5364339 0a8.5412484 8.5412484 0 0 0 -8.53642526 8.553396v192.948684a8.5412484 8.5412484 0 0 0 8.53642526 8.55339h68.4782651a1.4177427 1.4177427 0 0 0 1.070226-2.34435v-.008c-7.219183-8.34157-31.050363-37.302-34.82521-60.29898a43.358577 43.358577 0 0 1 .552108-18.02414c.03915-.23485.07957-.46601.127404-.69651 1.822188-8.78046 11.074004-21.31476 14.787976-26.96832a40.057756 40.057756 0 0 0 7.126405-19.519084 35.186983 35.186983 0 0 0 -1.350519-10.897757v-.02541l-.0254-.09342-.118938-.433195c-.04775-.169605-.100708-.34003-.152876-.509635l-.144411-.458672-.03388-.110349c-.434855-1.404692-.871041-2.546815-1.214644-3.329652-.821932-2.030898-1.578506-3.475641-1.817675-3.949686 0 0-.256907-.441948-.348263-.611542a2.078776 2.078776 0 0 0 -1.783732-.968328 2.1135672 2.1135672 0 0 0 -1.732739.934368 91.32697 91.32697 0 0 1 -11.500884 14.601038 15.747382 15.747382 0 0 1 -11.381895 5.376674 14.581877 14.581877 0 0 1 -12.579546-6.446908 170.95109 170.95109 0 0 1 -11.585753-22.831708c-.304424-.643661-1.641848-3.577338 1.002285-4.969007 1.796099-.948061 3.576567-.002 5.181313 2.607641a188.92075 188.92075 0 0 0 11.424328 16.639638 6.5929392 6.5929392 0 0 0 9.963404.86638 89.35256 89.35256 0 0 0 13.39492-22.177726 24.101628 24.101628 0 0 0 1.571395-15.620388 61.715287 61.715287 0 0 0 -16.197966-26.6030481l-.441686-.407718a10.337344 10.337344 0 0 0 -6.778176-2.77751586zm46.6912431.0080021a1.4351385 1.4351385 0 0 0 -.959779.48417829 1.3959985 1.3959985 0 0 0 -.220864 1.52889511l.237813.4331847a88.13054 88.13054 0 0 1 12.61354 33.6445538 44.615406 44.615406 0 0 0 4.145027 13.208099 64.876958 64.876958 0 0 1 6.65078 23.264923 53.361037 53.361037 0 0 1 -.518102 12.180317 54.317817 54.317817 0 0 1 -9.131 23.392357c-6.436408 10.36774-11.471157 17.48423-12.375729 27.83463a39.666353 39.666353 0 0 0 1.741266 14.72047 67.316687 67.316687 0 0 0 4.884042 11.20352s.789975 1.48112.968302 1.70728a2.1048698 2.1048698 0 0 0 1.73275.90882 2.1744521 2.1744521 0 0 0 .603089-.085 2.0004956 2.0004956 0 0 0 1.172169-.98529l.399216-.72164c.143527-.26531.325781-.6018.560609-1.01929a190.72991 190.72991 0 0 1 14.915372-22.69587v-.0338a36.065462 36.065462 0 0 1 6.234555-6.10715 13.425069 13.425069 0 0 1 7.771959-2.73504 14.534037 14.534037 0 0 1 12.834358 5.93728 149.63712 149.63712 0 0 1 11.82358 20.89512c.33052.63057 1.78921 3.51105-.79843 5.0114-1.73951 1.01766-3.58259.14945-5.29174-2.42076-.3392-.50881-8.94617-12.13995-11.57724-14.94936a5.9275563 5.9275563 0 0 0 -.56061-.54363 6.6799152 6.6799152 0 0 0 -3.618416-1.65632 6.7712446 6.7712446 0 0 0 -.832408-.0509 6.7060116 6.7060116 0 0 0 -.679508.034c-.104384 0-.205757.0293-.305799.0424-.09999.0129-.226657.0291-.339744.0509-.113059.0218-.280971.0628-.43317.10197l-.195387.0594c-.169606.0522-.331713.1047-.492636.16988l-.101926.0424c-.178281.0738-.357011.1509-.526624.23781h-.03389a6.7321023 6.7321023 0 0 0 -1.681802 1.23164s-.431742.47339-.492623.5691a78.78474 78.78474 0 0 0 -10.940269 19.3747c-1.191611 3.12248-2.602071 7.91791-2.658625 8.21364-2.035285 8.86306-.460715 12.50302 5.606013 19.39166.226153.25664 10.29635 10.71164 15.297634 15.39105a10.350389 10.350389 0 0 0 7.07547 2.78604h13.73471a8.5412484 8.5412484 0 0 0 8.53639-8.53642v-192.965824a8.5455965 8.5455965 0 0 0 -8.51945-8.54491377h-66.108453a1.4351385 1.4351385 0 0 0 -.144395 0z"/>
</svg>
