<svg height="200" viewBox="0 0 1024 1024" width="200" xmlns="http://www.w3.org/2000/svg"><path d="m543.51 77.63c22.25-3.27 45.32.03 65.91 9.03 14.98 6.6 29.31 15.27 40.71 27.14 11.54 11.89 19.63 27 23.34 43.14 1.6 6.23 2.12 12.65 2.9 19.01.27 2.78 3.63 2.72 5.68 3.21 36.66 6.02 72.08 20.64 101.44 43.55 27.56 21.28 49.58 49.06 66.62 79.28 25.49 44.91 40.37 95.38 46.09 146.57 1.88 18.74 3.19 37.65 1.22 56.43-.57 2.32 1.49 3.74 3.52 4 16.92 3.89 33.66 12.97 42.93 28.11 6.85 10.96 8.64 24.24 8.01 36.94-.59 20.1-7.33 40.16-20.04 55.85-8.25 10.35-20.01 17.69-32.8 20.95-16.67 4.31-34.31 3.22-50.96-.62-3.37-.71-6.62-1.97-10.06-2.29-2.14.63-2.38 3.21-3.12 4.98-16.83 53.43-45.53 103.19-84.17 143.81-37.51 39.77-83.58 70.73-132.74 94.24-33.03 15.87-67.52 28.47-102.45 39.43-16.65 5.27-33.24 11.07-50.57 13.7-19.72 3.28-40.1 5.3-59.86 1.22-16.95-3.3-32.39-11.87-45.74-22.61-46.75-37.8-86.45-84.85-113.26-138.82-21.72-43.61-35.68-91.28-39.29-139.94-.26-2.24-.38-4.98-2.46-6.35-2.57-1.45-5.66-1.33-8.47-1.92-14.45-2.28-27.62-10.54-36.58-22.02-13.34-17.09-20.52-39.01-19.3-60.7.88-13.64 3.58-27.83 11.75-39.13 6.98-9.86 17.98-16.33 29.57-19.24 2.65-.74 5.48-1.01 7.95-2.29 2.05-1.39 1.65-4.18 1.67-6.31-2.04-38.1 2.04-76.9 15.24-112.85 10.82-29.82 27.97-57.24 49.57-80.44 17.45-18.92 37.83-35.23 60.52-47.46.97-.72 2.51-1.02 2.92-2.3-1.61-3.61-4.19-6.69-5.86-10.27-7.18-13.59-9.3-29.62-6.34-44.67 4.15-21.04 15.24-40.55 30.85-55.21 18.68-17.6 42.26-29.49 66.97-36.03 3.52-.98 7.64-.61 10.43 1.95 3.72 3.2 3.66 8.63 6.56 12.39 2.47 3.62 6.81 5.47 11.08 5.73 10.28.84 20.35-2.35 29.71-6.27 12.62-5.09 23.91-12.81 36.12-18.72 14.12-6.9 29.2-11.99 44.79-14.2m10.62 238.09c-35.3 5.57-69.41 17.7-100.84 34.6-5.88 3.05-11.48 7.04-18.14 8.17-5.47 1.04-11.26.07-16.11-2.64-7.66-4.39-14.23-10.34-21.27-15.59-12.24-9.34-25.54-17.57-40.17-22.56-16.54-5.78-34.76-6.62-51.71-2.15-17.9 4.78-36.32 11.23-49.6 24.75-20.76 20.68-32.31 48.49-39.94 76.32-4.6 15-4.65 30.83-4.99 46.38-.39 32.76 4.96 65.3 12.6 97.07 1.49 5.99 3.61 11.86 4.21 18.04.57 4.94-.4 9.86-.77 14.77-2.79 32.16.64 64.59 7.54 96.03 7.78 35.23 20.67 69.35 38.37 100.8 17.17 30.61 38.75 58.66 63.35 83.66 3.87 4.23 9.94 5.1 15.39 5.08 6.39-.03 12.49-2.95 16.99-7.4 8.41-8.14 17.3-16.73 28.76-20.22 8.84-2.65 18.02 1.84 23.97 8.3 6.01 6.67 12.08 13.38 19.36 18.72 13.45 10.27 29.98 16.35 46.87 17.36 16.06 1.16 31.98-2.09 47.61-5.4 15.38-3.41 30.51-7.86 45.45-12.84 5-1.72 10.3-2.12 15.42-3.35 4.74-1.1 8.91-3.68 13.24-5.79 36.95-18.6 71.8-41.67 102.28-69.71 44.55-40.67 78.77-92.4 99.12-149.16-9.75 2.47-19.84.31-29.25-2.54-5.16-1.68-9.81-4.97-12.96-9.39-5.5-7.86-7.14-17.67-7.94-27.03-2.34-30.15 4.23-59.95 6.39-89.91 1.94-25.02 2.27-50.44-2.5-75.18-3.56-18.64-11.25-36.33-21.64-52.17-16.4-25.25-40.16-45.1-66.56-59.26-13.56-7.47-27.99-13.51-43.14-16.84-26.03-6.01-53.17-5.15-79.39-.92m-365.65 198.93c-8.82 1.94-17.1 7.23-21.48 15.28-5.82 10.6-6.32 23.26-4.99 35.03 1.3 12.9 5.82 25.73 14.35 35.66 6.69 7.88 16.31 13.72 26.72 14.58 2.18-.09 2.33-2.6 2.35-4.24.07-7.6.19-15.22 1.01-22.79.37-3.9 1.12-7.92.02-11.77-5.39-19.15-9.73-38.62-12.32-58.36-.39-1.4-.14-3.85-2.18-3.92-1.17.07-2.34.24-3.48.53m696.98 16.03c-15.37 5.33-26.99 18.84-32.76 33.76-6.71 18.33-11.03 37.4-16.33 56.15-.22 1.43-1.42 3.83.73 4.33 9.96 3.5 20.35 5.87 30.86 6.88 13.32 1.22 27.71 0 39.01-7.8 10.1-6.77 15.98-18.04 19.71-29.3 4.34-13.42 5.86-28.47.57-41.84-3.68-9.43-12.1-16.12-21.22-19.95-6.35-2.99-13.73-4.31-20.57-2.23z" fill="#211613"/><path d="m338.38 365.46c5.29-1.77 9.9 2.25 13.47 5.6 5.67 5.27 11.16 12.51 9.9 20.71-1.22 6.97-7.26 11.45-12.72 15.19-16.48 11.06-36.43 16.05-56.07 17.05-11.25.38-23.12-.36-33.22-5.8-3.59-1.65-4.89-7.54-1.2-9.76 5.23-2.44 10.85-4.04 16.55-4.89 15.38-2.84 29.06-11.44 40.44-21.89 7-6.15 14.02-12.84 22.85-16.21zm208.06.08c8.3-2.41 17.52-.51 24.57 4.37 8.29 5.95 15.05 13.66 22.16 20.9 10.96 10.95 26.38 16.98 41.83 16.87 6.38.3 13.45-.23 19.03 3.39 3.07 2.06 5.11 7.97 1.13 10.1-12.36 6.42-26.42 8.49-40.17 9.32-20.37.61-41.84-2.57-58.86-14.55-10.53-7.37-20.58-17.72-22.27-31.03-1.28-8.46 4.24-17.22 12.58-19.37zm-244.8 75.29c14.64-1.97 29.99-.42 43.3 6.29 18.01 8.71 31.86 25.61 36.61 45.07 2.02 8.37 3.13 17.66-.64 25.71-3.53 7.58-11.84 11.99-20 12.2-15.67.85-30.38-5.68-45.82-6.94-13.29-1.32-26.67-.11-39.88 1.53-8.57.93-17.95 1.29-25.61-3.32-5.38-3.16-8.52-9.27-8.78-15.41-.55-15.98 4.87-32.46 16.23-43.96 11.82-11.94 27.93-19.36 44.59-21.17m-17.32 19.38c-11.02 4.4-20.52 12.9-25.2 23.91-2.74 6.57-4.64 13.73-4.26 20.9.18 3.61 3.75 5.73 7.06 5.77 12.28.65 24.41-2.11 36.65-2.63-3.95-4.88-7.5-10.64-7.57-17.11-.06-10.33 9.77-19.29 19.99-18.8 9.86.12 19.12 8.72 19.2 18.72-.02 7.23-4.6 13.31-9.33 18.35 9.12 1.68 18.16 3.82 27.28 5.51 5.27.69 10.8 1.89 16 .24 3.41-1.09 5.24-4.72 5.17-8.13-.09-6.27-1.62-12.48-3.84-18.32-5.92-15.26-19.34-27.06-34.79-32.09-15.22-4.89-31.81-2.16-46.36 3.68zm275.24-19.38c33.97-3.3 70.08 5.85 95.94 28.77 13.31 11.53 23.52 26.98 27.45 44.26 2.01 8.89 1.21 18.68-3.54 26.59-4.75 8.06-13.28 13.43-22.33 15.31-6.7 1.33-13.56.25-20.12-1.21-12.27-2.75-24.51-5.62-36.69-8.74-8.74-2.26-17.39-4.98-26.35-6.27-15.57-2.44-31.44-1.79-47.01.26-8.73 1.15-18.08.58-25.83-3.95-6.46-3.53-11.14-10.04-12.36-17.3-2.34-15.06 1.67-30.86 10.58-43.17 7.53-10.42 17.35-19.28 28.71-25.34 9.76-5.17 20.61-8.03 31.55-9.21m.43 14.23c-15.21 1.76-29.93 8.32-41.04 18.92-9.13 8.7-14.95 20.57-16.91 32.98-.79 4.96-.15 10.66 3.57 14.36 3.74 3.73 9.32 4.58 14.39 4.47 13.36-.25 26.64-2.89 40.04-2-4.74-5.26-9.29-11.4-9.86-18.7-.74-11.16 7.82-22.09 18.86-24.04 7.86-1.69 16.28 1.38 21.56 7.36 6.06 6.39 7.54 16.42 4.24 24.48-2.57 6.07-8.04 10.24-13.64 13.36 13.93 3.5 27.86 7.02 41.78 10.54 8.88 2.25 17.8 4.79 27.01 5.14 4.14.16 8.38-.85 11.83-3.19 5.47-3.61 8.37-10.34 7.95-16.8-.69-9.6-5.06-18.48-10.28-26.39-9.24-14.19-23.39-24.59-38.77-31.3-18.99-8.2-40.16-11.68-60.73-9.19zm-314.57 141.54c2.56-1.17 5.22.31 7.44 1.54 17.39 9.99 36.69 16.28 56.29 20.3 43.25 8.62 87.54 8.53 131.42 10.69 51.42 2.14 103.33 3.06 154.3-5.29 14.21-2.39 28.28-5.6 42.07-9.79 3.01-.88 5.92-2.19 9.06-2.57 5.72-.13 8 8.89 3.15 11.76-4.63 2.58-9.99 3.29-14.93 5.08-1.45.59-1.04 2.46-1.26 3.69-.7 21.75-1.58 43.58-5.22 65.07-3.46 20.56-9.43 40.88-19.34 59.29-13.37 25.05-35.54 44.8-61.11 56.83-35.95 17.48-76.77 21.71-116.26 20.02-34.76-2.02-70.21-10.2-99.47-29.81-26.03-17.32-45.02-43.81-56.1-72.81-13.14-33.06-16.75-69.5-12.24-104.68.43-3.27.87-7.76-2.67-9.48-5.86-2.57-11.76-5.22-16.96-8.99-3.81-2.82-2.13-9.06 1.83-10.85m30.9 27.48c-1.17 3.12-1.07 6.55-1.46 9.83-2.54 29.23.33 59.14 10.26 86.84 5.79 16.6 14.07 32.43 25.39 45.95 1.67 2.38 3.57 4.6 5.74 6.56 11.14 12.74 24.89 23.27 40.47 29.97 37.19 15.53 78.4 21.08 118.42 16.44 21.89-2.62 43.87-7.11 63.94-16.53 12.21-5.65 23.52-13.16 33.59-22.07 2.56-2.09 4.9-4.42 7.03-6.94 18.51-18.94 28.76-44.4 33.93-70.03 4.78-23.86 6.12-48.27 6.68-72.55-5.1.25-10.08 1.44-15.11 2.15-7.63 1.27-15.35 1.79-23.04 2.5-31.67 2.71-63.42 4.42-95.2 5.18-46.34 1.22-92.72-.7-138.88-4.83-22.7-2.14-45.4-5.61-67.19-12.52-1.45-.27-3.32-1.2-4.57.05z" fill="#211613"/><path d="m169.54 101.67c.87 2.76 1.4 5.61 1.87 8.47 3.14 16.88 8.83 33.52 18.48 47.83 8.17 12.31 19.34 22.54 32.1 29.95 16.49 9.8 35.45 14.17 54.22 17.05-15.76 1.91-31.46 5.57-45.87 12.36-14.95 7.02-28.28 17.63-38.07 30.98-9.57 12.91-15.66 28.11-19.28 43.69-1.31 5.42-2.08 10.98-3.82 16.3-1.25-5.05-1.91-10.22-3.13-15.28-3.4-14.97-9.02-29.58-17.77-42.26-8.86-13.01-21.11-23.57-34.98-30.96-12.55-6.76-26.38-10.83-40.37-13.31-2.84-.51-5.77-.63-8.46-1.74 5.21-1.13 10.5-1.83 15.69-3.03 17.74-3.81 35.01-10.95 49.18-22.44 16.82-13.27 28.19-32.47 34.14-52.87 2.57-8.11 3.74-16.57 6.07-24.74z" fill="#fef600"/><path d="m554.13 315.72c26.22-4.23 53.36-5.09 79.39.92 15.15 3.33 29.58 9.37 43.14 16.84 26.4 14.16 50.16 34.01 66.56 59.26 10.39 15.84 18.08 33.53 21.64 52.17 4.77 24.74 4.44 50.16 2.5 75.18-2.16 29.96-8.73 59.76-6.39 89.91.8 9.36 2.44 19.17 7.94 27.03 3.15 4.42 7.8 7.71 12.96 9.39 9.41 2.85 19.5 5.01 29.25 2.54-20.35 56.76-54.57 108.49-99.12 149.16-30.48 28.04-65.33 51.11-102.28 69.71-4.33 2.11-8.5 4.69-13.24 5.79-5.12 1.23-10.42 1.63-15.42 3.35-14.94 4.98-30.07 9.43-45.45 12.84-15.63 3.31-31.55 6.56-47.61 5.4-16.89-1.01-33.42-7.09-46.87-17.36-7.28-5.34-13.35-12.05-19.36-18.72-5.95-6.46-15.13-10.95-23.97-8.3-11.46 3.49-20.35 12.08-28.76 20.22-4.5 4.45-10.6 7.37-16.99 7.4-5.45.02-11.52-.85-15.39-5.08-24.6-25-46.18-53.05-63.35-83.66-17.7-31.45-30.59-65.57-38.37-100.8-6.9-31.44-10.33-63.87-7.54-96.03.37-4.91 1.34-9.83.77-14.77-.6-6.18-2.72-12.05-4.21-18.04-7.64-31.77-12.99-64.31-12.6-97.07.34-15.55.39-31.38 4.99-46.38 7.63-27.83 19.18-55.64 39.94-76.32 13.28-13.52 31.7-19.97 49.6-24.75 16.95-4.47 35.17-3.63 51.71 2.15 14.63 4.99 27.93 13.22 40.17 22.56 7.04 5.25 13.61 11.2 21.27 15.59 4.85 2.71 10.64 3.68 16.11 2.64 6.66-1.13 12.26-5.12 18.14-8.17 31.43-16.9 65.54-29.03 100.84-34.6m-215.75 49.74c-8.83 3.37-15.85 10.06-22.85 16.21-11.38 10.45-25.06 19.05-40.44 21.89-5.7.85-11.32 2.45-16.55 4.89-3.69 2.22-2.39 8.11 1.2 9.76 10.1 5.44 21.97 6.18 33.22 5.8 19.64-1 39.59-5.99 56.07-17.05 5.46-3.74 11.5-8.22 12.72-15.19 1.26-8.2-4.23-15.44-9.9-20.71-3.57-3.35-8.18-7.37-13.47-5.6m208.06.08c-8.34 2.15-13.86 10.91-12.58 19.37 1.69 13.31 11.74 23.66 22.27 31.03 17.02 11.98 38.49 15.16 58.86 14.55 13.75-.83 27.81-2.9 40.17-9.32 3.98-2.13 1.94-8.04-1.13-10.1-5.58-3.62-12.65-3.09-19.03-3.39-15.45.11-30.87-5.92-41.83-16.87-7.11-7.24-13.87-14.95-22.16-20.9-7.05-4.88-16.27-6.78-24.57-4.37m-244.8 75.29c-16.66 1.81-32.77 9.23-44.59 21.17-11.36 11.5-16.78 27.98-16.23 43.96.26 6.14 3.4 12.25 8.78 15.41 7.66 4.61 17.04 4.25 25.61 3.32 13.21-1.64 26.59-2.85 39.88-1.53 15.44 1.26 30.15 7.79 45.82 6.94 8.16-.21 16.47-4.62 20-12.2 3.77-8.05 2.66-17.34.64-25.71-4.75-19.46-18.6-36.36-36.61-45.07-13.31-6.71-28.66-8.26-43.3-6.29m257.92 0c-10.94 1.18-21.79 4.04-31.55 9.21-11.36 6.06-21.18 14.92-28.71 25.34-8.91 12.31-12.92 28.11-10.58 43.17 1.22 7.26 5.9 13.77 12.36 17.3 7.75 4.53 17.1 5.1 25.83 3.95 15.57-2.05 31.44-2.7 47.01-.26 8.96 1.29 17.61 4.01 26.35 6.27 12.18 3.12 24.42 5.99 36.69 8.74 6.56 1.46 13.42 2.54 20.12 1.21 9.05-1.88 17.58-7.25 22.33-15.31 4.75-7.91 5.55-17.7 3.54-26.59-3.93-17.28-14.14-32.73-27.45-44.26-25.86-22.92-61.97-32.07-95.94-28.77m-314.14 155.77c-3.96 1.79-5.64 8.03-1.83 10.85 5.2 3.77 11.1 6.42 16.96 8.99 3.54 1.72 3.1 6.21 2.67 9.48-4.51 35.18-.9 71.62 12.24 104.68 11.08 29 30.07 55.49 56.1 72.81 29.26 19.61 64.71 27.79 99.47 29.81 39.49 1.69 80.31-2.54 116.26-20.02 25.57-12.03 47.74-31.78 61.11-56.83 9.91-18.41 15.88-38.73 19.34-59.29 3.64-21.49 4.52-43.32 5.22-65.07.22-1.23-.19-3.1 1.26-3.69 4.94-1.79 10.3-2.5 14.93-5.08 4.85-2.87 2.57-11.89-3.15-11.76-3.14.38-6.05 1.69-9.06 2.57-13.79 4.19-27.86 7.4-42.07 9.79-50.97 8.35-102.88 7.43-154.3 5.29-43.88-2.16-88.17-2.07-131.42-10.69-19.6-4.02-38.9-10.31-56.29-20.3-2.22-1.23-4.88-2.71-7.44-1.54z" fill="#f6d49e"/><path d="m284.32 460.21c14.55-5.84 31.14-8.57 46.36-3.68 15.45 5.03 28.87 16.83 34.79 32.09 2.22 5.84 3.75 12.05 3.84 18.32.07 3.41-1.76 7.04-5.17 8.13-5.2 1.65-10.73.45-16-.24-9.12-1.69-18.16-3.83-27.28-5.51 4.73-5.04 9.31-11.12 9.33-18.35-.08-10-9.34-18.6-19.2-18.72-10.22-.49-20.05 8.47-19.99 18.8.07 6.47 3.62 12.23 7.57 17.11-12.24.52-24.37 3.28-36.65 2.63-3.31-.04-6.88-2.16-7.06-5.77-.38-7.17 1.52-14.33 4.26-20.9 4.68-11.01 14.18-19.51 25.2-23.91zm275.67-5.15c20.57-2.49 41.74.99 60.73 9.19 15.38 6.71 29.53 17.11 38.77 31.3 5.22 7.91 9.59 16.79 10.28 26.39.42 6.46-2.48 13.19-7.95 16.8-3.45 2.34-7.69 3.35-11.83 3.19-9.21-.35-18.13-2.89-27.01-5.14-13.92-3.52-27.85-7.04-41.78-10.54 5.6-3.12 11.07-7.29 13.64-13.36 3.3-8.06 1.82-18.09-4.24-24.48-5.28-5.98-13.7-9.05-21.56-7.36-11.04 1.95-19.6 12.88-18.86 24.04.57 7.3 5.12 13.44 9.86 18.7-13.4-.89-26.68 1.75-40.04 2-5.07.11-10.65-.74-14.39-4.47-3.72-3.7-4.36-9.4-3.57-14.36 1.96-12.41 7.78-24.28 16.91-32.98 11.11-10.6 25.83-17.16 41.04-18.92z" fill="#fefefe"/><path d="m188.48 514.65c1.14-.29 2.31-.46 3.48-.53 2.04.07 1.79 2.52 2.18 3.92 2.59 19.74 6.93 39.21 12.32 58.36 1.1 3.85.35 7.87-.02 11.77-.82 7.57-.94 15.19-1.01 22.79-.02 1.64-.17 4.15-2.35 4.24-10.41-.86-20.03-6.7-26.72-14.58-8.53-9.93-13.05-22.76-14.35-35.66-1.33-11.77-.83-24.43 4.99-35.03 4.38-8.05 12.66-13.34 21.48-15.28z" fill="#e9b97d"/><path d="m885.46 530.68c6.84-2.08 14.22-.76 20.57 2.23 9.12 3.83 17.54 10.52 21.22 19.95 5.29 13.37 3.77 28.42-.57 41.84-3.73 11.26-9.61 22.53-19.71 29.3-11.3 7.8-25.69 9.02-39.01 7.8-10.51-1.01-20.9-3.38-30.86-6.88-2.15-.5-.95-2.9-.73-4.33 5.3-18.75 9.62-37.82 16.33-56.15 5.77-14.92 17.39-28.43 32.76-33.76z" fill="#e9b97e"/><path d="m276.32 624.08c1.25-1.25 3.12-.32 4.57-.05 21.79 6.91 44.49 10.38 67.19 12.52 46.16 4.13 92.54 6.05 138.88 4.83 31.78-.76 63.53-2.47 95.2-5.18 7.69-.71 15.41-1.23 23.04-2.5 5.03-.71 10.01-1.9 15.11-2.15-.56 24.28-1.9 48.69-6.68 72.55-5.17 25.63-15.42 51.09-33.93 70.03-32.72-18.19-68.84-30.09-105.79-35.84-36.11-5.35-73.58-6.11-109.07 3.48-17.19 4.53-33.94 11.3-48.67 21.36-1.86 1.23-3.77 2.39-5.66 3.57-11.32-13.52-19.6-29.35-25.39-45.95-9.93-27.7-12.8-57.61-10.26-86.84.39-3.28.29-6.71 1.46-9.83z" fill="#fe9090"/><path d="m364.84 741.77c35.49-9.59 72.96-8.83 109.07-3.48 36.95 5.75 73.07 17.65 105.79 35.84a53.606 53.606 0 0 1 -7.03 6.94c-2.27-2-4.58-4.03-7.35-5.29-13.63-6.01-27.24-12.16-41.47-16.64-23.1-7.51-47.05-12.4-71.22-14.73-34.3-3.3-69.74-1.05-102.26 10.98-12.09 4.46-23.49 10.61-34.12 17.87-2.17-1.96-4.07-4.18-5.74-6.56 1.89-1.18 3.8-2.34 5.66-3.57 14.73-10.06 31.48-16.83 48.67-21.36z" fill="#ce6b5e"/><path d="m350.37 755.39c32.52-12.03 67.96-14.28 102.26-10.98 24.17 2.33 48.12 7.22 71.22 14.73 14.23 4.48 27.84 10.63 41.47 16.64 2.77 1.26 5.08 3.29 7.35 5.29-10.07 8.91-21.38 16.42-33.59 22.07-20.07 9.42-42.05 13.91-63.94 16.53-40.02 4.64-81.23-.91-118.42-16.44-15.58-6.7-29.33-17.23-40.47-29.97 10.63-7.26 22.03-13.41 34.12-17.87z" fill="#fe8282"/></svg>