<?xml version="1.0" standalone="no"?><!DOCTYPE svg PUBLIC "-//W3C//DTD SVG 1.1//EN" "http://www.w3.org/Graphics/SVG/1.1/DTD/svg11.dtd"><svg t="1771827945790" class="icon" viewBox="0 0 1024 1024" version="1.1" xmlns="http://www.w3.org/2000/svg" p-id="5332" xmlns:xlink="http://www.w3.org/1999/xlink" width="200" height="200"><path d="M0 0h1024v1024H0z" fill="#0F0F12" p-id="5333"></path><path d="M744.68 598.28c-57.36 74.04-82.24 167.76-74.64 281.2-1.8 26.8-11.72 33.16-29.76 19.12-80.2-74.04-169.24-113.4-267.04-118.12 94.32-32.72 164.48-60.44 210.56-83.04 36.48-17.88 90.12-50.96 160.92-99.16z" fill="#028EFE" p-id="5334"></path><path d="M285.96 88.32c92.24 124.2 164.12 199.52 215.56 225.92 179.76 92.28 323.6 44.6 375.96 60.4 77.48 23.28 7.44 95.32-210.2 216.16l-102.4 54.12-0.6 0.24-23.6 12.48-0.36-0.68-103.96 51.08c-233.64 96.76-339.48 109.04-317.52 36.76l1.24-3.72c18-51.6 154.12-132.36 185.12-332 8.8-57.24-8.2-158.84-51.2-304.88-1.12-12.8 2-19.88 9.4-21.24 5.4-5.4 12.92-3.64 22.56 5.36z" fill="#2EC1FE" p-id="5335"></path></svg>