<?xml version="1.0" standalone="no"?><!DOCTYPE svg PUBLIC "-//W3C//DTD SVG 1.1//EN" "http://www.w3.org/Graphics/SVG/1.1/DTD/svg11.dtd"><svg t="1771776653661" class="icon" viewBox="0 0 1024 1024" version="1.1" xmlns="http://www.w3.org/2000/svg" p-id="7431" xmlns:xlink="http://www.w3.org/1999/xlink" width="200" height="200"><path d="M298.04 519.886s46.193-9.444 52.792-3.755l22.756 167.936-37.774 4.665-37.774-168.846z m17.976-92.388h26.397l7.51 65.081h-24.577l-9.33-65.08z m-30.15 6.6l24.575-2.162 7.51 63.715-21.504 3.527-10.582-65.08z m64.17-79.417s53.817-5.69 55.637 0l26.397 317.098h-41.074l-40.96-317.098z m94.322 167.14h51.882V692.6h-37.774l-14.108-170.78z m25.941-86.813h25.941v64.17H470.3v-64.17z m-31.63 0h22.642v64.17h-22.642v-64.17z m-312.32 129.251l-14.222-259.413c-8.42 7.51-71.68 28.33-71.68 28.33 21.617 74.525 50.972 384.91 50.972 384.91 148.594 4.78 210.375-60.301 214.13-75.434a55.923 55.923 0 0 0 0-27.42c-35.726-59.506-179.2-50.973-179.2-50.973z m44.942 112.299l-9.33-73.842 68.608 28.9-59.278 44.942z m607.118-61.326c-35.84-59.392-179.313-50.973-179.313-50.973l-14.223-259.413c-8.42 7.51-71.566 28.33-71.566 28.33 21.618 74.525 50.973 384.91 50.973 384.91 148.593 4.78 210.375-60.301 214.13-75.434 2.275-9.102 2.275-18.432 0-27.42z m-134.485 61.326l-9.33-73.842 68.608 28.9-59.278 44.942z m126.862-156.672s46.194-9.444 52.793-3.755l22.642 167.936-37.774 4.665-37.66-168.846z m17.977-92.388h26.397l7.509 65.081h-24.576l-9.33-65.08z m-30.265 6.6l24.576-2.162 7.51 63.715-21.504 3.527-10.582-65.08z m64.17-79.417s53.818-5.69 55.638 0l26.397 316.984h-41.074l-40.96-316.984z m94.436 167.14h51.883V692.6h-37.774l-14.109-170.78z m25.942-86.813h25.941v64.17h-25.941v-64.17z m-31.63 0h22.641v64.17h-22.641v-64.17z" fill="#FF6B86" p-id="7432"></path></svg>