<?xml version="1.0" standalone="no"?><!DOCTYPE svg PUBLIC "-//W3C//DTD SVG 1.1//EN" "http://www.w3.org/Graphics/SVG/1.1/DTD/svg11.dtd"><svg t="1771778198575" class="icon" viewBox="0 0 3072 1024" version="1.1" xmlns="http://www.w3.org/2000/svg" p-id="15870" xmlns:xlink="http://www.w3.org/1999/xlink" width="600" height="200"><path d="M629.76 558.08l-215.04-112.64c-17.066667-8.533333-23.893333-22.186667-25.6-40.96-1.706667-23.893333-3.413333-49.493333-3.413333-73.386667 0-13.653333 5.12-18.773333 18.773333-13.653333l10.24 5.12 128 66.56c5.12 3.413333 11.946667 10.24 17.066667 0 3.413333-8.533333 10.24-17.066667-1.706667-25.6-47.786667-37.546667-93.866667-76.8-139.946667-116.053333-18.773333-15.36-37.546667-30.72-42.666666-56.32-3.413333-18.773333-13.653333-25.6-29.013334-25.6-13.653333 0-22.186667 8.533333-27.306666 27.306666 0 1.706667-1.706667 3.413333-1.706667 5.12-1.706667 13.653333-8.533333 22.186667-18.773333 32.426667-44.373333 40.96-87.04 80.213333-131.413334 121.173333-15.36 15.36-15.36 15.36-6.826666 35.84 6.826667 5.12 10.24 5.12 17.066666 1.706667 20.48-11.946667 40.96-25.6 61.44-37.546667 17.066667-10.24 35.84-22.186667 52.906667-32.426666 11.946667-6.826667 22.186667-1.706667 20.48 11.946666-1.706667 25.6-1.706667 51.2-5.12 76.8-1.706667 11.946667-6.826667 22.186667-17.066667 32.426667-13.653333 10.24-29.013333 17.066667-44.373333 25.6-52.906667 30.72-109.226667 63.146667-163.84 93.866667-29.013333 17.066667-29.013333 17.066667-10.24 46.08 3.413333 6.826667 6.826667 8.533333 13.653333 5.12 34.133333-13.653333 68.266667-27.306667 104.106667-40.96 5.12-1.706667 11.946667-5.12 17.066667-3.413334 0 6.826667-5.12 8.533333-8.533334 11.946667-29.013333 25.6-56.32 49.493333-85.333333 75.093333-15.36 13.653333-15.36 18.773333-5.12 37.546667 10.24 17.066667 18.773333 32.426667 27.306667 49.493333 6.826667 13.653333 13.653333 15.36 23.893333 3.413334 18.773333-23.893333 40.96-46.08 59.733333-71.68 22.186667-29.013333 47.786667-54.613333 71.68-81.92 3.413333-3.413333 5.12-8.533333 11.946667-8.533334 1.706667 1.706667 1.706667 1.706667 1.706667 3.413334-3.413333 78.506667-6.826667 157.013333-11.946667 235.52 0 11.946667 3.413333 15.36 15.36 15.36h80.213333c18.773333 0 20.48-1.706667 20.48-20.48-1.706667-51.2-5.12-100.693333-6.826666-151.893334-1.706667-22.186667-1.706667-42.666667-3.413334-64.853333 0-5.12 0-10.24 3.413334-11.946667 5.12-1.706667 8.533333 1.706667 11.946666 5.12 1.706667 1.706667 3.413333 3.413333 5.12 6.826667l107.52 133.12c10.24 13.653333 18.773333 13.653333 29.013334 0 13.653333-15.36 25.6-30.72 39.253333-44.373333 6.826667-8.533333 6.826667-13.653333-1.706667-20.48-23.893333-22.186667-47.786667-44.373333-69.973333-66.56-13.653333-11.946667-25.6-25.6-39.253333-39.253334 3.413333-1.706667 5.12 0 6.826666 0 39.253333 13.653333 78.506667 27.306667 116.053334 40.96 30.72 10.24 27.306667 13.653333 35.84-20.48 6.826667-15.36 5.12-15.36-11.946667-23.893333zM3007.146667 520.533333h-34.133334c-10.24 0-11.946667-3.413333-6.826666-11.946666 5.12-8.533333 8.533333-17.066667 13.653333-23.893334 3.413333-6.826667 1.706667-8.533333-5.12-8.533333h-40.96c-13.653333 0-23.893333 5.12-30.72 17.066667-5.12 8.533333-10.24 18.773333-17.066667 25.6-3.413333 3.413333-8.533333 5.12-13.653333 1.706666-5.12-3.413333-5.12-6.826667-3.413333-11.946666 1.706667-10.24 3.413333-18.773333 6.826666-29.013334 3.413333-17.066667 10.24-22.186667 27.306667-22.186666h90.453333c8.533333 0 11.946667-3.413333 11.946667-10.24 1.706667-11.946667 3.413333-23.893333 6.826667-37.546667 3.413333-10.24 0-13.653333-10.24-13.653333h-88.746667c-10.24 0-18.773333-1.706667-20.48-13.653334 0-5.12-5.12-6.826667-8.533333-6.826666h-44.373334c-5.12 0-6.826667 1.706667-8.533333 5.12-3.413333 13.653333-13.653333 15.36-25.6 15.36h-88.746667c-8.533333 0-11.946667 3.413333-13.653333 10.24-1.706667 11.946667-5.12 22.186667-8.533333 34.133333-3.413333 15.36-3.413333 15.36 11.946666 15.36h88.746667c8.533333 0 17.066667 0 17.066667 11.946667 0 13.653333-3.413333 27.306667-8.533334 40.96-3.413333 8.533333-8.533333 11.946667-18.773333 11.946666-10.24 0-11.946667-6.826667-13.653333-15.36-1.706667-6.826667-3.413333-15.36-5.12-22.186666-1.706667-6.826667-5.12-10.24-11.946667-11.946667-17.066667-5.12-32.426667-1.706667-49.493333-1.706667-6.826667 0-8.533333 5.12-6.826667 10.24 3.413333 8.533333 3.413333 17.066667 5.12 25.6 1.706667 11.946667 0 15.36-11.946667 15.36h-40.96c-5.12 0-6.826667 0-8.533333 6.826667-5.12 15.36-8.533333 30.72-11.946667 46.08-1.706667 6.826667 0 10.24 8.533334 10.24h61.44c8.533333 0 11.946667 1.706667 6.826666 11.946667-18.773333 29.013333-44.373333 49.493333-75.093333 64.853333-3.413333 1.706667-8.533333 1.706667-8.533333 6.826667-3.413333 18.773333-6.826667 39.253333-10.24 59.733333 75.093333-23.893333 134.826667-63.146667 174.08-134.826667-8.533333 42.666667-17.066667 81.92-25.6 121.173334-1.706667 6.826667 0 8.533333 6.826666 8.533333h51.2c6.826667 0 10.24-3.413333 11.946667-10.24 6.826667-35.84 13.653333-69.973333 20.48-109.226667 23.893333 64.853333 75.093333 107.52 119.466667 131.413334 8.533333 5.12 10.24 1.706667 11.946666-5.12 3.413333-18.773333 5.12-37.546667 8.533334-56.32 1.706667-8.533333-1.706667-11.946667-8.533334-15.36-27.306667-13.653333-49.493333-32.426667-64.853333-58.026667-6.826667-11.946667-5.12-15.36 8.533333-15.36h66.56c6.826667 0 10.24-1.706667 11.946667-10.24 1.706667-15.36 5.12-29.013333 8.533333-44.373333 1.706667-6.826667 0-8.533333-6.826666-8.533334zM2587.306667 505.173333h-110.933334c-3.413333 0-8.533333 3.413333-10.24-3.413333-3.413333-18.773333 10.24-35.84 29.013334-35.84h78.506666c6.826667 0 10.24-1.706667 11.946667-8.533333 3.413333-15.36 6.826667-29.013333 11.946667-44.373334 1.706667-6.826667 0-8.533333-6.826667-8.533333h-88.746667c-11.946667 0-20.48-3.413333-17.066666-17.066667 1.706667-10.24-6.826667-11.946667-13.653334-11.946666h-37.546666c-5.12 0-8.533333 1.706667-10.24 6.826666-5.12 18.773333-10.24 22.186667-30.72 22.186667h-76.8c-5.12 0-10.24-1.706667-11.946667 5.12-5.12 18.773333-11.946667 35.84-17.066667 56.32h98.986667c10.24 0 18.773333 1.706667 17.066667 15.36-1.706667 20.48-3.413333 23.893333-17.066667 23.893333h-128c-8.533333 0-11.946667 1.706667-13.653333 10.24-5.12 13.653333-8.533333 27.306667-15.36 40.96-3.413333 8.533333-3.413333 11.946667 8.533333 11.946667h61.44c5.12 0 11.946667-1.706667 15.36 3.413333 3.413333 5.12-1.706667 10.24-5.12 15.36-20.48 29.013333-46.08 51.2-78.506667 66.56-3.413333 1.706667-8.533333 1.706667-10.24 6.826667-6.826667 22.186667-13.653333 44.373333-20.48 68.266667 76.8-27.306667 141.653333-66.56 182.613334-136.533334-8.533333 39.253333-17.066667 80.213333-27.306667 119.466667-1.706667 10.24-1.706667 13.653333 10.24 13.653333h44.373333c8.533333 0 11.946667-1.706667 11.946667-10.24 6.826667-35.84 13.653333-71.68 20.48-109.226666 1.706667 1.706667 3.413333 3.413333 3.413333 5.12 17.066667 54.613333 56.32 88.746667 104.106667 116.053333 8.533333 5.12 11.946667 3.413333 13.653333-5.12 1.706667-15.36 5.12-30.72 8.533334-46.08 1.706667-8.533333 0-11.946667-6.826667-17.066667-27.306667-15.36-46.08-39.253333-54.613333-69.973333-5.12-15.36-3.413333-17.066667 11.946666-17.066667h42.666667c27.306667 0 27.306667 0 34.133333-25.6 1.706667-5.12 3.413333-10.24 3.413334-15.36 8.533333-25.6 8.533333-25.6-15.36-25.6z" fill="#0085D6" p-id="15871"></path><path d="M1390.933333 689.493333c-13.653333-100.693333-27.306667-201.386667-40.96-303.786666-1.706667-10.24-5.12-13.653333-15.36-13.653334H1211.733333c-8.533333 0-11.946667 3.413333-15.36 10.24-25.6 47.786667-51.2 95.573333-76.8 141.653334-32.426667 61.44-66.56 122.88-98.986666 184.32-5.12 10.24-3.413333 13.653333 8.533333 13.653333h64.853333c11.946667 0 18.773333-5.12 23.893334-15.36 8.533333-18.773333 18.773333-35.84 29.013333-54.613333 3.413333-5.12 6.826667-8.533333 11.946667-6.826667h126.293333c8.533333 0 10.24 3.413333 11.946667 10.24 1.706667 18.773333 5.12 35.84 6.826666 52.906667 1.706667 8.533333 5.12 13.653333 13.653334 13.653333h71.68c6.826667 0 10.24-1.706667 8.533333-8.533333-3.413333-8.533333-5.12-17.066667-6.826667-23.893334z m-121.173333-124.586666h-68.266667c-5.12 0-10.24 0-6.826666-8.533334l61.44-112.64c0-1.706667 1.706667-3.413333 3.413333-5.12 1.706667 0 1.706667 1.706667 3.413333 1.706667 5.12 37.546667 10.24 75.093333 17.066667 112.64 0 8.533333-1.706667 11.946667-10.24 11.946667zM1034.24 372.053333H820.906667c-10.24 0-15.36 3.413333-18.773334 11.946667-6.826667 18.773333-15.36 35.84-22.186666 54.613333-5.12 11.946667-5.12 13.653333 10.24 13.653334h110.933333c8.533333 0 11.946667 1.706667 8.533333 10.24l-15.36 40.96-71.68 204.8c-3.413333 8.533333-1.706667 11.946667 8.533334 11.946666h83.626666c8.533333 0 13.653333-3.413333 17.066667-11.946666 11.946667-35.84 25.6-71.68 37.546667-107.52l76.8-215.04c3.413333-13.653333 3.413333-13.653333-11.946667-13.653334z" fill="#FF9200" p-id="15872"></path><path d="M1950.72 619.52c-3.413333-3.413333-5.12-5.12-1.706667-10.24 17.066667-25.6 29.013333-52.906667 39.253334-81.92 8.533333-23.893333 15.36-47.786667 22.186666-71.68 3.413333-13.653333-5.12-27.306667-18.773333-32.426667-8.533333-3.413333-17.066667-3.413333-25.6-3.413333-10.24 0-10.24-3.413333-8.533333-11.946667 3.413333-8.533333 5.12-18.773333 6.826666-27.306666 1.706667-6.826667 0-8.533333-6.826666-8.533334h-42.666667c-18.773333 0-18.773333 0-22.186667 18.773334-5.12 29.013333-5.12 29.013333-32.426666 30.72-5.12 0-8.533333 0-11.946667 5.12-5.12 17.066667-10.24 32.426667-15.36 49.493333-1.706667 6.826667 0 6.826667 5.12 8.533333 5.12 1.706667 10.24 3.413333 15.36 1.706667 13.653333-5.12 11.946667 1.706667 8.533333 10.24-11.946667 27.306667-25.6 54.613333-42.666666 78.506667-6.826667 8.533333-6.826667 13.653333 3.413333 18.773333 10.24 6.826667 20.48 17.066667 30.72 25.6 5.12 5.12 6.826667 8.533333 0 13.653333-8.533333 6.826667-17.066667 11.946667-25.6 20.48-11.946667 10.24-30.72 10.24-35.84 23.893334-5.12 13.653333-5.12 29.013333-8.533333 44.373333 0 5.12-3.413333 11.946667 0 15.36 3.413333 3.413333 10.24 0 13.653333-1.706667 34.133333-11.946667 64.853333-30.72 90.453333-56.32 8.533333-6.826667 11.946667-5.12 17.066667 3.413334l25.6 40.96c13.653333-23.893333 27.306667-44.373333 40.96-66.56 3.413333-5.12 3.413333-8.533333 0-13.653334-6.826667-8.533333-13.653333-17.066667-20.48-23.893333z m-40.96-47.786667c-5.12 6.826667-8.533333 6.826667-13.653333 1.706667-5.12-3.413333-11.946667-5.12-6.826667-15.36 13.653333-20.48 25.6-42.666667 35.84-66.56 3.413333-6.826667 8.533333-6.826667 15.36-6.826667 5.12 0 6.826667 3.413333 8.533333 8.533334 0 1.706667-1.706667 3.413333-1.706666 6.826666-11.946667 23.893333-23.893333 47.786667-37.546667 71.68z" fill="#0085D6" p-id="15873"></path><path d="M2157.226667 501.76c18.773333-27.306667 35.84-51.2 52.906666-76.8 13.653333-20.48 3.413333-39.253333-20.48-39.253333h-143.36c-6.826667 0-8.533333 1.706667-10.24 8.533333-1.706667 11.946667-5.12 22.186667-10.24 34.133333-3.413333 10.24-3.413333 13.653333 10.24 13.653334 20.48-1.706667 39.253333 0 59.733334 0 10.24 0 13.653333 5.12 13.653333 13.653333-3.413333 18.773333-15.36 30.72-25.6 46.08-1.706667 1.706667-6.826667 1.706667-10.24 1.706667h-51.2c-8.533333 0-13.653333 3.413333-17.066667 11.946666-5.12 13.653333-10.24 29.013333-17.066666 40.96-3.413333 6.826667-1.706667 11.946667 8.533333 11.946667h56.32c17.066667 0 20.48 5.12 17.066667 22.186667-3.413333 17.066667-8.533333 34.133333-11.946667 49.493333-3.413333 17.066667-15.36 29.013333-30.72 27.306667-25.6-1.706667-27.306667 11.946667-30.72 29.013333 0 5.12-1.706667 10.24-3.413333 15.36-1.706667 6.826667 0 8.533333 6.826666 8.533333h61.44c27.306667-1.706667 46.08-17.066667 51.2-40.96 6.826667-30.72 11.946667-59.733333 18.773334-90.453333 3.413333-18.773333 6.826667-20.48 27.306666-22.186667h18.773334c3.413333 0 6.826667-1.706667 8.533333-5.12 6.826667-18.773333 15.36-37.546667 23.893333-58.026666-18.773333-1.706667-34.133333-1.706667-52.906666-1.706667z" fill="#0085D6" p-id="15874"></path><path d="M1559.893333 372.053333h-73.386666c-8.533333 0-11.946667 3.413333-13.653334 11.946667-10.24 56.32-22.186667 112.64-34.133333 168.96-10.24 51.2-20.48 104.106667-30.72 155.306667-1.706667 11.946667 1.706667 15.36 11.946667 13.653333h71.68c10.24 0 15.36-1.706667 17.066666-13.653333 20.48-109.226667 40.96-216.746667 61.44-325.973334 1.706667-8.533333-1.706667-10.24-10.24-10.24zM1698.133333 640h-146.773333c-6.826667 0-10.24 3.413333-11.946667 10.24-3.413333 20.48-6.826667 40.96-11.946666 61.44-1.706667 8.533333 0 11.946667 8.533333 11.946667h145.066667c6.826667 0 11.946667-1.706667 13.653333-10.24 3.413333-20.48 8.533333-40.96 11.946667-61.44 1.706667-8.533333 0-11.946667-8.533334-11.946667zM436.906667 351.573333c-10.24-6.826667-20.48-6.826667-22.186667 1.706667-3.413333 15.36-5.12 32.426667-8.533333 47.786667 1.706667 10.24 5.12 18.773333 15.36 23.893333l66.56 25.6c27.306667 10.24 54.613333 20.48 80.213333 30.72 8.533333 3.413333 11.946667 0 15.36-8.533333 3.413333-10.24 1.706667-17.066667-8.533333-22.186667l-71.68-51.2c-23.893333-17.066667-46.08-32.426667-66.56-47.786667zM141.653333 484.693333c11.946667-5.12 23.893333-10.24 37.546667-15.36 32.426667-13.653333 64.853333-27.306667 97.28-42.666666 11.946667-5.12 18.773333-11.946667 20.48-27.306667-1.706667-10.24-5.12-22.186667-6.826667-34.133333-3.413333-20.48-10.24-23.893333-27.306666-10.24-18.773333 15.36-39.253333 30.72-58.026667 47.786666-23.893333 20.48-49.493333 40.96-73.386667 59.733334-8.533333 6.826667-3.413333 13.653333 0 18.773333 0 6.826667 6.826667 5.12 10.24 3.413333zM1051.306667 453.973333h76.8c5.12 0 10.24-1.706667 11.946666-6.826666l35.84-66.56c3.413333-8.533333 0-8.533333-5.12-8.533334H1080.32c-5.12 0-10.24 0-11.946667 6.826667-6.826667 22.186667-15.36 44.373333-23.893333 66.56-3.413333 6.826667 0 8.533333 6.826667 8.533333z" fill="#FF9200" p-id="15875"></path></svg>